<svg xmlns="http://www.w3.org/2000/svg" width="114" height="40" viewBox="0 0 114 40"><defs><style>.cls-1{fill:#a5adba;}</style></defs><title>nielsen-114x40</title><g id="nielsen"><path class="cls-1" d="M6.779,14.6a11.312,11.312,0,0,1,1.883-1.58,3.956,3.956,0,0,1,2.164-.551,3.153,3.153,0,0,1,2.91,1.4,6.923,6.923,0,0,1,.866,3.679v9.915a.772.772,0,0,1-.63.806,8.956,8.956,0,0,1-1.691.256v.432h8.032V28.6q-.355-.038-.768-.1a5.962,5.962,0,0,1-.767-.157,1.767,1.767,0,0,1-.61-.294.583.583,0,0,1-.255-.472V16.014a7.294,7.294,0,0,0-1.22-4.366,4.055,4.055,0,0,0-3.5-1.692,5.242,5.242,0,0,0-2.046.413,8.2,8.2,0,0,0-1.809,1.043,9.325,9.325,0,0,0-1.476,1.4,14.087,14.087,0,0,0-1.08,1.436"/><path class="cls-1" d="M5.793,15.329V27.54a1.008,1.008,0,0,0,.275.571,1.169,1.169,0,0,0,.472.256,2.9,2.9,0,0,0,.629.1,5.074,5.074,0,0,1,.748.1v.393H.325v-.393a5.18,5.18,0,0,0,1.553-.354.936.936,0,0,0,.65-.905V13.772a1.42,1.42,0,0,0-.06-.472.893.893,0,0,0-.333-.355q-.355-.2-.827-.452a10.4,10.4,0,0,0-.944-.453V11.8L5.518,9.956h.266Z"/><path class="cls-1" d="M100.143,14.6a11.351,11.351,0,0,1,1.882-1.58,3.957,3.957,0,0,1,2.163-.552,3.159,3.159,0,0,1,2.913,1.4,6.928,6.928,0,0,1,.864,3.679v9.916a.771.771,0,0,1-.629.8,8.97,8.97,0,0,1-1.692.257v.432h8.031V28.6c-.235-.026-.491-.058-.767-.1a5.946,5.946,0,0,1-.766-.157,1.785,1.785,0,0,1-.61-.294.581.581,0,0,1-.255-.473V16.014a7.3,7.3,0,0,0-1.22-4.367,4.056,4.056,0,0,0-3.5-1.691,5.236,5.236,0,0,0-2.047.413,8.225,8.225,0,0,0-1.808,1.042,9.374,9.374,0,0,0-1.476,1.4,14.371,14.371,0,0,0-1.081,1.436"/><path class="cls-1" d="M99.156,15.329V27.54a1.012,1.012,0,0,0,.276.571,1.184,1.184,0,0,0,.471.256,2.972,2.972,0,0,0,.63.1,5.139,5.139,0,0,1,.749.1v.393H93.688v-.393a5.187,5.187,0,0,0,1.554-.354.936.936,0,0,0,.649-.905V13.771a1.454,1.454,0,0,0-.058-.471.909.909,0,0,0-.335-.355c-.235-.132-.511-.282-.825-.452a10.293,10.293,0,0,0-.946-.453V11.8l5.154-1.848h.268Z"/><path class="cls-1" d="M21.294,28.958v-.4c.321-.027.64-.06.961-.1a3.879,3.879,0,0,0,.86-.2,1.869,1.869,0,0,0,.641-.379.783.783,0,0,0,.26-.6V13.542a2.28,2.28,0,0,0-.06-.561.788.788,0,0,0-.341-.441,7.157,7.157,0,0,0-.86-.48,10.907,10.907,0,0,0-1.06-.44v-.241l5.411-1.762h.238v17.9a.872.872,0,0,0,.341.58,1.693,1.693,0,0,0,.621.261,4.606,4.606,0,0,0,.78.1,5.263,5.263,0,0,1,.821.1v.4Z"/><path class="cls-1" d="M27,5.638a2.027,2.027,0,0,1-1.492.6,2.007,2.007,0,0,1-1.474-.622,2.018,2.018,0,0,1-.62-1.478,1.968,1.968,0,0,1,.6-1.477,2.2,2.2,0,0,1,2.985,0,1.972,1.972,0,0,1,.6,1.477,2.039,2.039,0,0,1-.6,1.5"/><path class="cls-1" d="M79.089,15.666a7.249,7.249,0,0,1,.44-1.381A7.8,7.8,0,0,1,80.548,12.5a7.484,7.484,0,0,1,1.562-1.541,3.321,3.321,0,0,1,2.02-.662,3.632,3.632,0,0,1,2.741,1.061,3.543,3.543,0,0,1,1.02,2.544,1.942,1.942,0,0,1-.14.84,2.925,2.925,0,0,1-.421.6,3.133,3.133,0,0,1-.92.2q-.519.041-1.119.04c-.615,0-1.174.007-1.681.02s-1,.026-1.46.04-.748.02-1.228.02l-.179.546H91.862a7.442,7.442,0,0,0-.76-2.92,6.294,6.294,0,0,0-1.663-2.061,6.774,6.774,0,0,0-2.4-1.22,10.537,10.537,0,0,0-2.945-.4,7.51,7.51,0,0,0-3.5.82A8.636,8.636,0,0,0,77.9,12.573a9.892,9.892,0,0,0-1.7,2.982,9.787,9.787,0,0,0-.6,3.343,12.047,12.047,0,0,0,.64,3.944,9.881,9.881,0,0,0,1.824,3.243,8.116,8.116,0,0,0,2.862,2.142,8.979,8.979,0,0,0,3.726.759,7.216,7.216,0,0,0,2.985-.6,8.025,8.025,0,0,0,2.3-1.521,7.554,7.554,0,0,0,1.523-2.022,7.371,7.371,0,0,0,.721-1.983l-.322-.08a4.8,4.8,0,0,1-1.981,2.5,6.076,6.076,0,0,1-3.5,1.023,7.341,7.341,0,0,1-3.243-.681A6.508,6.508,0,0,1,80.81,23.76a8.48,8.48,0,0,1-1.4-2.723,10.779,10.779,0,0,1-.48-3.223q0-.441.042-.861c.025-.28.039-.527.039-.741Z"/><path class="cls-1" d="M34.642,15.664a7.269,7.269,0,0,1,.441-1.381A7.8,7.8,0,0,1,36.1,12.5a7.46,7.46,0,0,1,1.562-1.541,3.327,3.327,0,0,1,2.02-.662,3.63,3.63,0,0,1,2.741,1.061,3.543,3.543,0,0,1,1.02,2.544,1.942,1.942,0,0,1-.14.84,2.975,2.975,0,0,1-.419.6,3.176,3.176,0,0,1-.922.2q-.519.04-1.119.04-.922,0-1.681.02c-.507.013-1,.026-1.46.04s-.748.02-1.228.02l-.178.546H47.417a7.485,7.485,0,0,0-.76-2.92,6.309,6.309,0,0,0-1.664-2.061,6.77,6.77,0,0,0-2.4-1.22,10.493,10.493,0,0,0-2.944-.4,7.5,7.5,0,0,0-3.505.821,8.6,8.6,0,0,0-2.683,2.142,10.069,10.069,0,0,0-2.3,6.325A12.039,12.039,0,0,0,31.8,22.84a9.864,9.864,0,0,0,1.823,3.242,8.1,8.1,0,0,0,2.863,2.143,8.971,8.971,0,0,0,3.725.759,7.216,7.216,0,0,0,2.985-.6,8.012,8.012,0,0,0,2.3-1.521,7.56,7.56,0,0,0,1.522-2.022,7.337,7.337,0,0,0,.721-1.983l-.32-.08a4.809,4.809,0,0,1-1.983,2.5,6.069,6.069,0,0,1-3.5,1.023,7.341,7.341,0,0,1-3.243-.681,6.508,6.508,0,0,1-2.324-1.863,8.506,8.506,0,0,1-1.4-2.722,10.791,10.791,0,0,1-.48-3.224q0-.441.041-.861c.026-.28.041-.528.041-.741Z"/><path class="cls-1" d="M48.482,28.958v-.442a8.706,8.706,0,0,0,2.441-.379.915.915,0,0,0,.6-.9V4.206a1.449,1.449,0,0,0-.061-.481.917.917,0,0,0-.339-.361q-.363-.2-1.083-.62a10.539,10.539,0,0,0-1.2-.621v-.24L54.573,0h.28V27.436a.879.879,0,0,0,.18.6,1.008,1.008,0,0,0,.541.281,5.374,5.374,0,0,0,.922.1c.374.013.814.047,1.322.1v.442Z"/><path class="cls-1" d="M72.552,25.756a5.315,5.315,0,0,1-1.66,1.863,7.018,7.018,0,0,1-2.381,1.042,12.035,12.035,0,0,1-2.822.321,16.393,16.393,0,0,1-3.321-.321,13.526,13.526,0,0,1-2.882-.922V22.451h.3a20.526,20.526,0,0,0,.8,2.023,10.249,10.249,0,0,0,1.163,1.963A5.832,5.832,0,0,0,63.4,27.921a4.353,4.353,0,0,0,2.289.58,4.236,4.236,0,0,0,3.07-1.1A4.505,4.505,0,0,0,69.9,24.013a2.882,2.882,0,0,0-.781-2.062,3.974,3.974,0,0,0-2.147-1.1q-1.082-.2-2.084-.441a18.152,18.152,0,0,1-1.8-.521,5,5,0,0,1-2.467-1.8A5.07,5.07,0,0,1,59.674,15a4.768,4.768,0,0,1,.523-2.243,5.466,5.466,0,0,1,1.409-1.722,6.274,6.274,0,0,1,2.046-1.1,7.906,7.906,0,0,1,2.482-.381,13.027,13.027,0,0,1,2.963.3,19.425,19.425,0,0,1,2.443.74l.48,4.968-.32.08q-.562-1.2-1.122-2.223a8.961,8.961,0,0,0-1.241-1.763A4.882,4.882,0,0,0,67.8,10.512a4.67,4.67,0,0,0-1.982-.4,3.883,3.883,0,0,0-1.342.24,3.418,3.418,0,0,0-1.161.7,3.609,3.609,0,0,0-.821,1.161,3.866,3.866,0,0,0-.321,1.623,2.507,2.507,0,0,0,.841,2.124,5.739,5.739,0,0,0,2.121.961c.586.135,1.228.275,1.92.422s1.3.286,1.8.42a5.93,5.93,0,0,1,3.061,1.842,4.972,4.972,0,0,1,1.261,3.446,5.576,5.576,0,0,1-.622,2.7"/><path class="cls-1" d="M5.942,37.953A2.047,2.047,0,1,1,3.9,35.907a2.047,2.047,0,0,1,2.046,2.046"/><path class="cls-1" d="M19.17,37.953a2.047,2.047,0,1,1-2.047-2.046,2.047,2.047,0,0,1,2.047,2.046"/><path class="cls-1" d="M32.4,37.953a2.047,2.047,0,1,1-2.047-2.046A2.047,2.047,0,0,1,32.4,37.953"/><path class="cls-1" d="M45.625,37.953a2.047,2.047,0,1,1-2.046-2.046,2.047,2.047,0,0,1,2.046,2.046"/><path class="cls-1" d="M58.853,37.953a2.047,2.047,0,1,1-2.047-2.046,2.048,2.048,0,0,1,2.047,2.046"/><path class="cls-1" d="M72.079,37.953a2.047,2.047,0,1,1-2.046-2.046,2.047,2.047,0,0,1,2.046,2.046"/><path class="cls-1" d="M85.307,37.953a2.047,2.047,0,1,1-2.046-2.046,2.047,2.047,0,0,1,2.046,2.046"/><path class="cls-1" d="M111.762,37.953a2.047,2.047,0,1,1-2.047-2.046,2.047,2.047,0,0,1,2.047,2.046"/><path class="cls-1" d="M98.534,37.953a2.047,2.047,0,1,1-2.046-2.046,2.047,2.047,0,0,1,2.046,2.046"/></g></svg>