<svg id="dimension_data" data-name="dimension data" xmlns="http://www.w3.org/2000/svg" width="150" height="40" viewBox="0 0 150 40"><defs><style>.cls-1{fill:#a5adba;}</style></defs><title>dimensions-data-150x40</title><path class="cls-1" d="M132.4,3.706a2.079,2.079,0,0,0-1.735-1,1.828,1.828,0,0,0-1.682,1L120.52,18.371a20.387,20.387,0,0,0,20.393,0Z"/><path class="cls-1" d="M148.061,36.872a1.882,1.882,0,0,0,1.682-1,1.971,1.971,0,0,0,0-1.945l-8.462-14.664a20.4,20.4,0,0,0-10.2,17.66Z"/><path class="cls-1" d="M113.162,36.872a2.083,2.083,0,0,1-1.735-1.051,1.974,1.974,0,0,1,0-1.945l8.515-14.664a20.317,20.317,0,0,1,7.463,7.463,19.888,19.888,0,0,1,2.681,10.2Z"/><path class="cls-1" d="M8.41,14.271a3.794,3.794,0,0,1-.421,1.156,2.152,2.152,0,0,1-.841.841,2.5,2.5,0,0,1-1.261.316,2.5,2.5,0,0,1-1.262-.316,2.159,2.159,0,0,1-.841-.841,4.471,4.471,0,0,1-.473-1.156,5.625,5.625,0,0,1-.157-1.314,6.069,6.069,0,0,1,.157-1.367,4.471,4.471,0,0,1,.473-1.156,2.03,2.03,0,0,1,.841-.788A2.555,2.555,0,0,1,5.939,9.33,2.238,2.238,0,0,1,7.2,9.646a3.025,3.025,0,0,1,.841.788,3.328,3.328,0,0,1,.473,1.156,5.783,5.783,0,0,1,.1,1.367,11.254,11.254,0,0,0-.21,1.314m0-5.571h0A3.125,3.125,0,0,0,6.938,7.438a4.206,4.206,0,0,0-1.892-.473,4.885,4.885,0,0,0-2.208.473A4.826,4.826,0,0,0,1.261,8.752a5.358,5.358,0,0,0-.946,1.892A8.014,8.014,0,0,0,0,12.852a8.106,8.106,0,0,0,.315,2.26,6.123,6.123,0,0,0,.946,1.945,4.254,4.254,0,0,0,1.577,1.314,4.959,4.959,0,0,0,2.26.473,4.845,4.845,0,0,0,2-.421,3.4,3.4,0,0,0,1.419-1.314h.052v1.472h2.944V2.971H8.41Z"/><rect class="cls-1" x="13.981" y="2.971" width="3.101" height="2.575"/><rect class="cls-1" x="13.981" y="7.28" width="3.101" height="11.353"/><path class="cls-1" d="M35.793,7.911a2.868,2.868,0,0,0-1.314-.683,5.66,5.66,0,0,0-1.682-.21,3.747,3.747,0,0,0-2.049.578A4.672,4.672,0,0,0,29.381,8.91a2.694,2.694,0,0,0-1.367-1.472,4.773,4.773,0,0,0-1.944-.42,4.15,4.15,0,0,0-2,.473A4.528,4.528,0,0,0,22.6,8.857h-.053V7.28H19.605V18.633h3.1v-6.57a3.318,3.318,0,0,1,.263-1.366,1.922,1.922,0,0,1,.578-.789,2.179,2.179,0,0,1,.683-.367,3.42,3.42,0,0,1,.578-.106,2.009,2.009,0,0,1,1.1.263,1.161,1.161,0,0,1,.526.684,4.477,4.477,0,0,1,.21.893v7.358h3.1V12.326a6.984,6.984,0,0,1,.053-1.051,2.846,2.846,0,0,1,.315-.946,2.568,2.568,0,0,1,.631-.683,2.456,2.456,0,0,1,2.1-.053,1.521,1.521,0,0,1,.578.578,3.638,3.638,0,0,1,.263.894,6.641,6.641,0,0,1,.053,1.051v6.412h3.1V11.065a5.093,5.093,0,0,0-.316-1.892,2.52,2.52,0,0,0-.736-1.262"/><path class="cls-1" d="M41.943,11.748a2.048,2.048,0,0,1,.158-.736,2.881,2.881,0,0,1,.42-.788,2.329,2.329,0,0,1,.788-.631,2.814,2.814,0,0,1,1.262-.263,2.144,2.144,0,0,1,1.682.631,3.758,3.758,0,0,1,.788,1.787Zm6.938-2.68a5.18,5.18,0,0,0-4.31-2.1,5.942,5.942,0,0,0-2.365.473A6.37,6.37,0,0,0,40.366,8.7a5.835,5.835,0,0,0-1.209,1.892,6.985,6.985,0,0,0-.42,2.365,7.066,7.066,0,0,0,.42,2.418,4.981,4.981,0,0,0,1.156,1.892,4.518,4.518,0,0,0,1.84,1.209,7.062,7.062,0,0,0,2.418.42A6.238,6.238,0,0,0,47.882,18a5.218,5.218,0,0,0,2-2.891H47.146a1.842,1.842,0,0,1-.841,1,2.83,2.83,0,0,1-1.629.473,2.636,2.636,0,0,1-2-.684,3.269,3.269,0,0,1-.789-2.207h8.2a7.933,7.933,0,0,0-.211-2.523,5.967,5.967,0,0,0-1-2.1"/><path class="cls-1" d="M62.6,18.633v-6.99a6.975,6.975,0,0,0-.21-1.892,3.4,3.4,0,0,0-.631-1.472A2.871,2.871,0,0,0,60.5,7.333a5.606,5.606,0,0,0-2.05-.315,4.239,4.239,0,0,0-1.945.473A3.6,3.6,0,0,0,54.978,8.91h-.053V7.333H51.982V18.686h3.1V12.694a4.152,4.152,0,0,1,.578-2.47,2.081,2.081,0,0,1,1.84-.736,1.738,1.738,0,0,1,1.576.683,3.811,3.811,0,0,1,.421,2.1v6.412h3.1Z"/><path class="cls-1" d="M74.9,15.007a2.562,2.562,0,0,0-.315-1.314,3.225,3.225,0,0,0-.789-.894,3.976,3.976,0,0,0-1.156-.578,12.235,12.235,0,0,0-1.314-.368,11.794,11.794,0,0,0-1.314-.263q-.632-.158-1.1-.315a2.8,2.8,0,0,1-.788-.42.847.847,0,0,1-.316-.684,1.062,1.062,0,0,1,.158-.578.811.811,0,0,1,.421-.315c.157-.053.367-.105.578-.158.21,0,.368-.052.578-.052a2.84,2.84,0,0,1,1.419.315,1.37,1.37,0,0,1,.683,1.209h2.944a4.214,4.214,0,0,0-.526-1.735,3.659,3.659,0,0,0-1.1-1.1,4.822,4.822,0,0,0-1.524-.579,10.248,10.248,0,0,0-3.574,0,5.131,5.131,0,0,0-1.577.579,2.783,2.783,0,0,0-1.1,1.1,3.6,3.6,0,0,0-.42,1.787,2.5,2.5,0,0,0,.315,1.262,2.442,2.442,0,0,0,.789.841,3.887,3.887,0,0,0,1.156.525,12.106,12.106,0,0,0,1.314.368,17.068,17.068,0,0,1,2.575.684c.631.21.946.578.946,1.051a.967.967,0,0,1-.21.683,1.8,1.8,0,0,1-.473.42,3.125,3.125,0,0,1-.63.263,3.215,3.215,0,0,1-.684.053,5.228,5.228,0,0,1-.893-.105,3.124,3.124,0,0,1-.736-.316A1.816,1.816,0,0,1,67.7,15.8a1.547,1.547,0,0,1-.21-.841H64.544a4.2,4.2,0,0,0,.525,1.892,3.793,3.793,0,0,0,1.209,1.209,4.3,4.3,0,0,0,1.682.631,11.618,11.618,0,0,0,1.945.21,7.721,7.721,0,0,0,1.892-.21,4.052,4.052,0,0,0,1.629-.631,3.625,3.625,0,0,0,1.157-1.209,5.814,5.814,0,0,0,.315-1.839"/><rect class="cls-1" x="76.79" y="2.971" width="3.101" height="2.575"/><rect class="cls-1" x="76.79" y="7.28" width="3.101" height="11.353"/><path class="cls-1" d="M84.832,11.643a3.808,3.808,0,0,1,.473-1.156,2.68,2.68,0,0,1,3.469-.841,2.152,2.152,0,0,1,.841.841,3.808,3.808,0,0,1,.473,1.156,5.549,5.549,0,0,1,.105,1.314,10.35,10.35,0,0,1-.105,1.314,3.819,3.819,0,0,1-.473,1.156,2.152,2.152,0,0,1-.841.841,2.89,2.89,0,0,1-2.628,0,2.152,2.152,0,0,1-.841-.841,4.471,4.471,0,0,1-.473-1.156,5.558,5.558,0,0,1-.1-1.314,3.705,3.705,0,0,1,.1-1.314M83.2,17.319a5.592,5.592,0,0,0,1.84,1.209,7.154,7.154,0,0,0,4.836,0,4.868,4.868,0,0,0,1.839-1.209,4.949,4.949,0,0,0,1.156-1.892,7.143,7.143,0,0,0,.421-2.47,7.363,7.363,0,0,0-.421-2.47,5.715,5.715,0,0,0-1.156-1.893,4.878,4.878,0,0,0-1.839-1.208,7.154,7.154,0,0,0-4.836,0A4.882,4.882,0,0,0,83.2,8.594a4.985,4.985,0,0,0-1.156,1.893,7.473,7.473,0,0,0,0,4.94A4.4,4.4,0,0,0,83.2,17.319"/><path class="cls-1" d="M97.972,12.694a4.152,4.152,0,0,1,.578-2.47,2.081,2.081,0,0,1,1.84-.736,1.738,1.738,0,0,1,1.576.683,3.811,3.811,0,0,1,.421,2.1v6.412h3.1V11.643a6.975,6.975,0,0,0-.21-1.892,3.4,3.4,0,0,0-.631-1.472,2.869,2.869,0,0,0-1.262-.946,5.6,5.6,0,0,0-2.049-.315,4.239,4.239,0,0,0-1.945.473A3.6,3.6,0,0,0,97.867,8.91h-.053V7.333H94.871V18.686h3.1V12.694Z"/><path class="cls-1" d="M69.169,32.509a3.749,3.749,0,0,1-.421,1.157,2.159,2.159,0,0,1-.841.841,2.682,2.682,0,0,1-2.522,0,2.159,2.159,0,0,1-.841-.841,4.429,4.429,0,0,1-.473-1.157,5.561,5.561,0,0,1-.158-1.314,6.005,6.005,0,0,1,.158-1.366,4.429,4.429,0,0,1,.473-1.157,2.031,2.031,0,0,1,.841-.788,2.562,2.562,0,0,1,1.314-.315,2.243,2.243,0,0,1,1.261.315,3.011,3.011,0,0,1,.841.788,3.342,3.342,0,0,1,.473,1.157,5.77,5.77,0,0,1,.105,1.366,11.321,11.321,0,0,0-.21,1.314m0-5.571h0A3.131,3.131,0,0,0,67.7,25.676a4.937,4.937,0,0,0-1.892-.42,4.877,4.877,0,0,0-2.207.473,4.782,4.782,0,0,0-1.577,1.314,5.324,5.324,0,0,0-.946,1.892,7.444,7.444,0,0,0-.316,2.208,8.07,8.07,0,0,0,.316,2.26,6.081,6.081,0,0,0,.946,1.945A4.239,4.239,0,0,0,63.6,36.662a4.953,4.953,0,0,0,2.26.473,4.84,4.84,0,0,0,2-.421A3.4,3.4,0,0,0,69.274,35.4h.053v1.472H72.27V21.209h-3.1v5.729Z"/><path class="cls-1" d="M81.678,32.457a3.527,3.527,0,0,1-.052.683,2.329,2.329,0,0,1-.316.841,2.43,2.43,0,0,1-.736.736,2.581,2.581,0,0,1-1.419.315,3.513,3.513,0,0,1-.736-.052,2.992,2.992,0,0,1-.63-.211,1.232,1.232,0,0,1-.421-.473,1.454,1.454,0,0,1-.157-.683,1.529,1.529,0,0,1,.157-.736,1.239,1.239,0,0,1,.421-.473,5.684,5.684,0,0,1,.578-.315c.21-.053.473-.1.683-.158a3.588,3.588,0,0,1,.736-.105c.263-.053.473-.053.736-.105l.631-.158a1,1,0,0,0,.473-.263v1.157Zm3.1,1.892V28.462a2.5,2.5,0,0,0-.473-1.629,3.245,3.245,0,0,0-1.209-1,6.92,6.92,0,0,0-1.576-.473,9.634,9.634,0,0,0-1.735-.105,7.77,7.77,0,0,0-1.892.21,4.65,4.65,0,0,0-1.682.631A4.217,4.217,0,0,0,75,27.253a3.311,3.311,0,0,0-.526,1.84h3.1a1.663,1.663,0,0,1,.63-1.314,2.445,2.445,0,0,1,1.472-.368,3.937,3.937,0,0,1,.788.053,1.767,1.767,0,0,1,.631.21,1.247,1.247,0,0,1,.421.473,1.756,1.756,0,0,1,.157.788,1.038,1.038,0,0,1-.263.736,1.779,1.779,0,0,1-.841.368,7.11,7.11,0,0,1-1.208.21c-.473.053-.894.105-1.367.158a5.775,5.775,0,0,0-1.367.315,2.884,2.884,0,0,0-1.208.578,3.307,3.307,0,0,0-.894,1,3.515,3.515,0,0,0-.315,1.577A3.432,3.432,0,0,0,74.53,35.4a2.761,2.761,0,0,0,.841,1.051,4.4,4.4,0,0,0,1.209.631,6.675,6.675,0,0,0,1.524.21,6.946,6.946,0,0,0,2.05-.315,4.168,4.168,0,0,0,1.734-1.051c0,.21.053.368.053.578.053.158.105.368.158.525h3.153a2.261,2.261,0,0,1-.315-1.051,9.453,9.453,0,0,1-.158-1.629"/><path class="cls-1" d="M91.139,22.155h-3.1v3.364H86.146v2.1h1.892V34.3a3.145,3.145,0,0,0,.263,1.367,1.89,1.89,0,0,0,.788.788,2.492,2.492,0,0,0,1.156.368,11.029,11.029,0,0,0,1.367.1h.946a4.605,4.605,0,0,0,.894-.1V34.4a1.446,1.446,0,0,1-.473.053h-.526a1.582,1.582,0,0,1-1.051-.263,1.582,1.582,0,0,1-.263-1.051V27.621H93.4v-2.1h-2.26V22.155Z"/><path class="cls-1" d="M102.387,32.457a3.462,3.462,0,0,1-.053.683,2.31,2.31,0,0,1-.315.841,2.453,2.453,0,0,1-.736.736,2.581,2.581,0,0,1-1.419.315,3.508,3.508,0,0,1-.736-.052,3.02,3.02,0,0,1-.631-.211,1.238,1.238,0,0,1-.42-.473,1.454,1.454,0,0,1-.158-.683,1.529,1.529,0,0,1,.158-.736,1.245,1.245,0,0,1,.42-.473,5.706,5.706,0,0,1,.579-.315c.21-.053.473-.1.683-.158a3.588,3.588,0,0,1,.736-.105c.262-.053.473-.053.736-.105l.63-.158a1,1,0,0,0,.473-.263v1.157Zm3.206,3.364a12.837,12.837,0,0,1-.105-1.472V28.462a2.509,2.509,0,0,0-.473-1.629,3.253,3.253,0,0,0-1.209-1,6.929,6.929,0,0,0-1.577-.473,9.617,9.617,0,0,0-1.734-.105,7.765,7.765,0,0,0-1.892.21,4.644,4.644,0,0,0-1.682.631,4.217,4.217,0,0,0-1.209,1.156,3.3,3.3,0,0,0-.526,1.84h3.1a1.666,1.666,0,0,1,.631-1.314,2.445,2.445,0,0,1,1.472-.368,3.947,3.947,0,0,1,.788.053,1.767,1.767,0,0,1,.631.21,1.245,1.245,0,0,1,.42.473,1.755,1.755,0,0,1,.158.788,1.038,1.038,0,0,1-.263.736,1.779,1.779,0,0,1-.841.368,7.141,7.141,0,0,1-1.209.21c-.473.053-.893.105-1.366.158a5.775,5.775,0,0,0-1.367.315,2.894,2.894,0,0,0-1.209.578,3.291,3.291,0,0,0-.893,1,3.5,3.5,0,0,0-.316,1.577,3.418,3.418,0,0,0,.316,1.524,2.761,2.761,0,0,0,.841,1.051,4.386,4.386,0,0,0,1.209.631,6.675,6.675,0,0,0,1.524.21,6.951,6.951,0,0,0,2.05-.315,4.168,4.168,0,0,0,1.734-1.051c0,.21.053.368.053.578.052.158.1.368.157.525h3.154a3.24,3.24,0,0,1-.368-1.208"/></svg>