<svg xmlns="http://www.w3.org/2000/svg" width="140" height="40" viewBox="0 0 140 40"><defs><style>.cls-1,.cls-2{fill:#a5adba;}.cls-1{fill-rule:evenodd;}</style></defs><title>homeland-sec-140x40</title><g id="homeland_security" data-name="homeland security"><path class="cls-1" d="M21.063,0A19.954,19.954,0,1,0,41.017,19.954,19.954,19.954,0,0,0,21.063,0Zm0,38.634a18.68,18.68,0,1,1,18.68-18.68A18.68,18.68,0,0,1,21.063,38.634Z"/><path class="cls-1" d="M12.261,25.561c.016.124.038.248.048.373a6.062,6.062,0,0,1,.045.723,1.851,1.851,0,0,1-.531,1.139,1.12,1.12,0,0,1-.27-.606c-.018-.14.007-.287-.017-.425a1.076,1.076,0,0,0-.127-.273l-.562.254a2.378,2.378,0,0,1-.03-.4,2.2,2.2,0,0,1,.1-.454A.207.207,0,0,0,10.9,25.7c-.11-.182-.107-.183-.32-.145l-.559.1a3.987,3.987,0,0,1,.19-.407,3.737,3.737,0,0,1,.276-.356,2.777,2.777,0,0,1-1.032-.139,1.976,1.976,0,0,1,.769-.411c-.036-.175-.037-.177-.194-.175a1.789,1.789,0,0,1-1.167-.481,2.268,2.268,0,0,1,1.035-.2,1.668,1.668,0,0,1-1.193-.749,2.009,2.009,0,0,1,1-.033c-.02-.086-.032-.159-.055-.229-.007-.02-.044-.036-.07-.042-.084-.019-.17-.029-.254-.048a.983.983,0,0,1-.694-.534c-.07-.138-.126-.282-.2-.446a1.958,1.958,0,0,1,1.066.259c-.019-.167-.035-.314-.055-.46,0-.018-.027-.038-.045-.049a1.258,1.258,0,0,1-.565-1.013c-.024-.211-.053-.421-.08-.631a.377.377,0,0,1,0-.048l.613.4c.007-.158.015-.306.021-.453a11.7,11.7,0,0,1,.44-2.744.123.123,0,0,1,.15-.108,3.857,3.857,0,0,0,1.086-.106,2.274,2.274,0,0,0-.852,1.318,2.491,2.491,0,0,0,1.531-.355,2.851,2.851,0,0,0-.571,1.354,2.716,2.716,0,0,0,1.4-.546,4.406,4.406,0,0,0-.49,1.33,2.455,2.455,0,0,0,1.359-.608,3.049,3.049,0,0,0-.3,1.42,2.185,2.185,0,0,0,1.2-.562,3.428,3.428,0,0,0-.164,1.408,1.974,1.974,0,0,0,1.118-.846,2.569,2.569,0,0,0-.065,1.28,1.509,1.509,0,0,0,.886-.726,2.283,2.283,0,0,0-.019,1.2l.526-.254c.012.115.015.24.038.361q.066.35.153.7a.143.143,0,0,1-.031.148,2.418,2.418,0,0,1-.752.564c-.035.019-.068.039-.119.069l.374.176c-.206.191-.507.228-.709.438l.355.15c-.023.016-.043.034-.066.048a2.377,2.377,0,0,1-1.359.346,1.114,1.114,0,0,0-.488.054c-.144.057-.276.125-.29.3-.174.043-.414-.048-.459.216a.4.4,0,0,0,.308.452c-.078.166.03.269.131.37a.2.2,0,0,0,.288.04c-.006.154.024.2.158.257a.966.966,0,0,0,.189.06c.146.029.226,0,.283-.106A.339.339,0,0,0,14.6,26.1c-.011.084-.016.164-.033.242a.14.14,0,0,1-.192.117c-.282-.057-.313-.12-.177-.426-.069.043-.116.068-.16.1-.128.09-.185.077-.293-.07-.085-.117-.073-.186.047-.274a.168.168,0,0,0,.065-.071c-.048.009-.1.018-.144.029a.229.229,0,0,1-.287-.286c.011-.041.073-.082.12-.1.127-.045.17-.023.236.088a.223.223,0,0,0,.186.122.841.841,0,0,1-.066-.157c-.047-.225.094-.376.367-.389.146-.007.293,0,.439,0l.426,0a.132.132,0,0,1,.132.1,1.854,1.854,0,0,0,.092.22.185.185,0,0,0,.241.1c.336-.1.67-.207,1.005-.311l.06-.02-.075.388a1.226,1.226,0,0,0,.433-.187c.135-.081.272-.161.408-.241l.021.019-.1.363c.087-.032.166-.052.238-.087a5.076,5.076,0,0,0,.485-.254.7.7,0,0,1,.745,0,3.443,3.443,0,0,0-.714,1.375l.553-.1a3.131,3.131,0,0,0-.146.917,1.891,1.891,0,0,0,.587-.242,3.715,3.715,0,0,0,.07,1l.626-.461a3.7,3.7,0,0,0,.279.979l.506-.553a2.8,2.8,0,0,0,.484.888A3.713,3.713,0,0,0,21.549,28l.534.593a3.48,3.48,0,0,0,.278-.982l.629.464a3.173,3.173,0,0,0,.062-.99l.594.254a3.442,3.442,0,0,0-.144-.942l.543.105a2.237,2.237,0,0,0-.263-.727c-.125-.217-.272-.423-.414-.64.141-.044.29-.094.442-.136a.168.168,0,0,1,.105.021c.2.091.388.187.583.278.124.059.25.113.4.18l-.11-.387c.314.1.537.363.867.42l-.077-.4c.374.107.738.208,1.1.319.138.042.225.017.279-.119.024-.058.036-.121.061-.179.06-.143.122-.168.238-.165.166,0,.332-.011.5-.01a.964.964,0,0,1,.245.033.294.294,0,0,1,.169.488.193.193,0,0,0,.2-.141c.039-.091.078-.1.2-.064.077.026.133.066.11.168-.048.214-.118.259-.331.2a.218.218,0,0,0-.117,0c.033.026.067.051.1.078a.144.144,0,0,1,.03.226.791.791,0,0,1-.068.085.143.143,0,0,1-.219.022l-.141-.1c.006.1.045.217.006.29s-.156.085-.243.106c-.14.034-.173-.03-.2-.358l-.026-.011a.833.833,0,0,0-.056.161c-.033.274.119.405.382.335.032-.009.064-.02.1-.03.119-.04.214-.1.191-.249a.35.35,0,0,0,.437-.422c.2-.026.273-.117.318-.378.027-.158-.073-.22-.219-.257l3.379-2.664.028.224.6-.8-.017-.022-.914.4.217.075-3.491,2.757c-.088-.112-.049-.209,0-.315q1-2.011,1.99-4.024c.016-.032.033-.064.057-.11l.115.2c.073-.347.139-.665.206-.984l-.023-.012-.658.761.227-.027-2.107,4.27a1.254,1.254,0,0,0-.21-.069,2.211,2.211,0,0,0-.354-.026,2.316,2.316,0,0,1-1.244-.235c-.039-.022-.076-.05-.114-.076l.357-.147c-.193-.215-.493-.247-.708-.441l.38-.141a.288.288,0,0,0-.042-.031,2.352,2.352,0,0,1-.842-.654.135.135,0,0,1-.024-.111,3.779,3.779,0,0,0,.184-1.114,1.3,1.3,0,0,0,.57.3,2.228,2.228,0,0,0-.029-1.166,1.539,1.539,0,0,0,.9.675,2.522,2.522,0,0,0-.1-1.265,2.051,2.051,0,0,0,1.143.8,2.964,2.964,0,0,0-.2-1.35,5.569,5.569,0,0,0,.553.348,6.066,6.066,0,0,0,.65.228,3.024,3.024,0,0,0-.3-1.459,2.263,2.263,0,0,0,1.292.674,2.249,2.249,0,0,0-.357-1.322,1.966,1.966,0,0,0,1.321.483,2.066,2.066,0,0,0-.513-1.337,2.375,2.375,0,0,0,.755.275,1.965,1.965,0,0,0,.79,0,1.863,1.863,0,0,0-.963-1.3c.218.043.406.091.6.116s.389.032.585.04c.054,0,.081.014.1.071a11.763,11.763,0,0,1,.377,1.839,11.41,11.41,0,0,1,.081,1.829c0,.023,0,.045.007.1l.429-.462-.213-.04.781-.493.012.011c-.143.264-.287.528-.442.815l-.046-.2a.554.554,0,0,0-.063.05c-.143.157-.287.314-.427.474a.194.194,0,0,0-.051.1c-.022.224-.039.449-.059.7l.438-.367-.209-.065.838-.385.012.014-.54.738-.029-.2a2.478,2.478,0,0,1-.206.165.756.756,0,0,0-.4.69,1.348,1.348,0,0,1-.035.2l.359-.226-.2-.095.877-.269.01.018-.635.666.013-.224c-.16.1-.306.187-.44.287-.035.027-.04.1-.049.156a.157.157,0,0,1-.125.142c-.234.073-.464.156-.727.245l.2.088c-.8.559-1.641,1.034-2.4,1.624l.012.024.089-.04a8.673,8.673,0,0,0,1.216-.716c.364-.24.729-.476,1.093-.713.025-.016.05-.03.083-.049v.224l.483-.531-.061.26.486-.265-.2-.1.872-.262.014.02-.626.65v-.212l-.245.134c-.1.053-.193.1-.286.161-.029.017-.065.046-.07.075-.016.085-.071.107-.145.122a5.979,5.979,0,0,0-.629.153l.173.1c-.5.253-1,.5-1.486.746s-.983.474-1.465.748l.079.106,2.935-1.468-.026.228.449-.39-.078.255.427-.177-.187-.109.889-.185.012.022-.687.6.025-.217c-.186.081-.357.15-.522.233-.035.017-.05.081-.068.127A11.786,11.786,0,0,1,24.82,31.06a11.841,11.841,0,0,1-4.385.577,11.731,11.731,0,0,1-7.881-3.7c-.1-.109-.2-.222-.3-.333-.009-.01-.015-.022,0-.023a5.006,5.006,0,0,0,.263-.529,1.315,1.315,0,0,0-.037-.8c-.056-.211-.108-.423-.166-.634-.006-.021-.035-.037-.054-.055-.011.005-.027.007-.034.016a2.169,2.169,0,0,0-.522,1.563.782.782,0,0,0,.037.148,5.9,5.9,0,0,1,.511-1.683A.165.165,0,0,0,12.261,25.561Zm.918-2.632a2.972,2.972,0,0,0-.553,1.369,1.935,1.935,0,0,0,.947-1.822,2.017,2.017,0,0,0-.929.625V22.084a1.753,1.753,0,0,0-.569.673A1.51,1.51,0,0,0,12,24.011c-.038.008-.067.011-.1.02a.237.237,0,0,0,.02.457.244.244,0,0,0,.264-.117c.087-.146.177-.291.271-.445l.069.232c.062-.222.112-.455.194-.676A1.2,1.2,0,0,1,13.179,22.929Zm-2.786-.374c.127-.108.262-.22.393-.337a1.211,1.211,0,0,0,.433-.915,2.587,2.587,0,0,0-.078-.666A1.419,1.419,0,0,0,10.393,22.555Zm.612.56c-.156.048-.221.129-.2.24s.116.168.29.151c.022.051.043.1.069.152s.056.1.084.143a2.161,2.161,0,0,1,.143-1.522c-.005.135-.022.269-.036.4s-.026.277-.034.416-.017.272-.014.407.021.27.033.415c.107-.169.2-.324.3-.47a1.248,1.248,0,0,0,.209-1.011,2.658,2.658,0,0,0-.251-.7A1.559,1.559,0,0,0,11.005,23.115ZM16.566,28.3a4.176,4.176,0,0,0-1.647-2.49c-.028.066-.056.132-.082.2a.1.1,0,0,0,.039.128,3.2,3.2,0,0,1,1.2,1.981.092.092,0,0,0,.049.061C16.267,28.221,16.416,28.259,16.566,28.3Zm15.683-7.1.468-.885L32.7,20.3l-.815.527.008.025.191.028c-.033.038-.054.064-.076.088q-1.664,1.819-3.326,3.64a1.689,1.689,0,0,0-.142.217l.029.025a3.946,3.946,0,0,0,.367-.312q1.539-1.671,3.07-3.349l.189-.207ZM9.981,21.072a1.707,1.707,0,0,0,.373-1.849,1.52,1.52,0,0,0-.713.832.134.134,0,0,0,.029.1,1.431,1.431,0,0,1,.267.572C9.959,20.839,9.966,20.951,9.981,21.072Zm22.183-1.084-.071.094c-.6.761-1.208,1.517-1.8,2.285-.271.351-.514.724-.77,1.088a.492.492,0,0,0-.029.056l.025.018c.959-1.118,1.831-2.306,2.769-3.453l.071.216c.142-.325.271-.623.4-.92l-.022-.015-.774.587.01.023Zm-5.652,9.033c.026-.049.042-.078.056-.106.159-.325.315-.651.477-.974a.25.25,0,0,0,.014-.207.226.226,0,0,1,.006-.156c.133-.289.274-.575.413-.861.016-.035.031-.071.048-.112l-.121-.067c-.161.332-.314.655-.474.975a.239.239,0,0,1-.119.1.266.266,0,0,0-.15.132c-.164.322-.333.642-.5.962-.016.03-.029.062-.053.112l.293-.083Zm5.7-7.325.039.223c.189-.3.363-.573.536-.848l-.022-.017-.876.475.215.053c-.816.8-1.708,1.515-2.45,2.38C30.567,23.279,31.349,22.45,32.212,21.7Zm-7.574,6.318.08-.066q.291-.251.581-.5c.07-.062.134-.128.242-.107.026,0,.061-.021.087-.04.381-.266.766-.527,1.139-.8a3.341,3.341,0,0,0,.363-.37l-.016-.019c-.028.016-.056.031-.082.049-.436.287-.872.572-1.3.863a.277.277,0,0,1-.247.057.177.177,0,0,0-.128.023c-.317.193-.632.391-.947.588-.027.017-.053.037-.1.068a.659.659,0,0,1,.233.062C24.591,27.855,24.605,27.941,24.638,28.014Zm6.491-7.323-.024-.014-.724.651.016.024.194-.009c-.02.034-.033.057-.047.078-.256.389-.507.78-.768,1.164a9.611,9.611,0,0,0-.866,1.5c-.014.031-.027.063-.04.095l.021.011c.606-.917,1.212-1.834,1.825-2.76l.088.213C30.919,21.306,31.024,21,31.129,20.691Zm-3.863,5.46c-.191.209-.376.4-.553.605a.329.329,0,0,1-.269.14.164.164,0,0,0-.1.055q-.418.414-.833.83c-.019.02-.035.043-.078.1.208-.062.321-.01.339.2.026-.031.048-.055.067-.08q.3-.4.6-.793c.06-.079.111-.164.229-.168.026,0,.054-.036.075-.06.153-.179.3-.365.461-.537A.25.25,0,0,0,27.266,26.151Zm-.26-.13L26.993,26l-.1.047c-.4.2-.8.4-1.193.6a.234.234,0,0,1-.187.017.282.282,0,0,0-.177.011c-.314.143-.624.292-.936.44-.049.024-.1.05-.166.086a.888.888,0,0,1,.2.081.8.8,0,0,1,.127.156.574.574,0,0,0,.071-.04c.251-.162.5-.323.752-.488a.245.245,0,0,1,.229-.055.162.162,0,0,0,.108-.034c.334-.2.667-.411,1-.618C26.819,26.144,26.912,26.082,27.006,26.021ZM9.075,19.934a9.148,9.148,0,0,1,.787,1.3c-.119.109-.146.2-.091.3a.215.215,0,0,0,.239.1.22.22,0,0,0,.155-.209c0-.115-.07-.17-.269-.218A1.837,1.837,0,0,0,9.075,19.934Zm1.28,5.336.012.025.085-.044a4.4,4.4,0,0,1,1-.375c.064-.014.12-.03.168.05a.193.193,0,0,0,.257.06.22.22,0,0,0,.12-.231.213.213,0,0,0-.2-.175.2.2,0,0,0-.218.151c-.009.028-.016.056-.024.086A1.622,1.622,0,0,0,10.355,25.27ZM8.841,21.635a5.95,5.95,0,0,1,1.082.726l-.047.045a.158.158,0,0,0-.034.2.155.155,0,0,0,.175.086.157.157,0,0,0,.136-.151.168.168,0,0,0-.11-.172.332.332,0,0,1-.1-.082,1.794,1.794,0,0,0-.653-.542A1.037,1.037,0,0,0,8.841,21.635ZM12.85,24.89a.246.246,0,1,0-.252-.24A.244.244,0,0,0,12.85,24.89Zm-.088.737a.242.242,0,0,0,.247-.244.247.247,0,1,0-.247.244Zm-1.576-1.179a.89.89,0,0,0,.028.122.166.166,0,1,0,.3-.132.152.152,0,0,0-.223-.077.345.345,0,0,1-.279.056A2.158,2.158,0,0,0,9.99,24.6c-.031.014-.061.033-.106.057Zm-.723-1.131c-.528-.343-.869-.479-1.114-.413.039.013.069.022.1.035.295.126.59.251.884.379a.136.136,0,0,1,.1.15.158.158,0,0,0,.161.157.159.159,0,0,0,.164-.133.149.149,0,0,0-.105-.188A.661.661,0,0,0,10.463,23.317Zm.736.8a.238.238,0,1,0-.236.244A.244.244,0,0,0,11.2,24.122Zm-.49-1.221a.243.243,0,0,0-.227-.232.232.232,0,1,0,.227.232Zm1.182,2.3a1.735,1.735,0,0,0-.841,1.126Zm1.688-.236a.2.2,0,0,0-.2-.2.2.2,0,0,0,0,.39A.2.2,0,0,0,13.579,24.964Zm-1.228-.22a.182.182,0,1,0,.18.174A.181.181,0,0,0,12.351,24.744Zm15.491,1.092a.34.34,0,0,0,.268-.338.1.1,0,0,0-.034-.056.227.227,0,0,0-.265,0Zm-13.511-.319a.23.23,0,0,0-.266.008c-.075.073,0,.147.011.219a.14.14,0,0,0,.022.044.246.246,0,0,0,.2.13Zm-3.573-1.656a1.378,1.378,0,0,0-.979-.177Zm3.72,1.9-.22.332c.079.015.157.035.236.043.017,0,.059-.041.056-.057C14.532,25.978,14.505,25.876,14.478,25.765Zm13.4.236-.2-.315a2.008,2.008,0,0,0-.056.2,1.209,1.209,0,0,0-.007.16,1.568,1.568,0,0,0,.182,0A.279.279,0,0,0,27.873,26ZM14.424,25.57a.212.212,0,0,0,.222-.008c.037-.03.041-.1.05-.159,0-.018-.019-.048-.037-.059s-.04.016-.055.032C14.543,25.439,14.484,25.5,14.424,25.57Zm13.3-.079-.179-.192c-.027-.03-.056-.072-.087-.01a.147.147,0,0,0,.138.219A.814.814,0,0,0,27.72,25.491Z"/><path class="cls-1" d="M27.782,10.233c-.266.166-.532.312-.776.488a1.5,1.5,0,0,0-.676,1.049,3.184,3.184,0,0,0,.019.7,10.351,10.351,0,0,1,.129,1.385,1.852,1.852,0,0,1-1.262,1.663.777.777,0,0,1-.309-.016c-.574-.078-1.146-.159-1.719-.236-.135-.019-.271-.024-.4-.044a.1.1,0,0,1-.069-.069c-.048-.3-.087-.6-.133-.905-.062-.4-.127-.8-.192-1.2a.957.957,0,0,0,.855-.454,1,1,0,0,1-1.057-.245.849.849,0,0,1-.127-.112,1.2,1.2,0,0,0-.872-.374,3.479,3.479,0,0,0-1.037.1.783.783,0,0,0-.157.06.2.2,0,0,0-.133.261,4.357,4.357,0,0,0-.5.153.622.622,0,0,0-.213.971l.018,0c.087-.24.181-.3.45-.31a.9.9,0,0,1,.9.609.534.534,0,0,1-.138.576c-.1.1-.216.187-.323.281a1.705,1.705,0,0,0-.468.6.124.124,0,0,1-.088.06c-.444.051-.889.093-1.332.146-.23.027-.457.072-.686.107a.332.332,0,0,1-.117.005,2.454,2.454,0,0,1-1.791-1.51,1.928,1.928,0,0,1,0-1.242,8.261,8.261,0,0,0,.207-.838,1.871,1.871,0,0,0-.7-1.877c-.034-.027-.066-.056-.1-.085l-.012-.02a11.517,11.517,0,0,1,5.549-1.727A11.636,11.636,0,0,1,27.782,10.233Z"/><path class="cls-1" d="M32.556,12.952l.631-.179a14.011,14.011,0,1,1-23.935-.321l.6.234a13.265,13.265,0,0,0-1.67,10.542,12.968,12.968,0,0,0,4.691,7.18,13.328,13.328,0,0,0,16.263.179,13.029,13.029,0,0,0,5.105-8.158A13.211,13.211,0,0,0,32.556,12.952Z"/><path class="cls-1" d="M25.46,19.017a22.315,22.315,0,0,0-4.345-.456,22.276,22.276,0,0,0-4.333.456c-.009-.129-.019-.251-.025-.372q-.043-.921-.085-1.842c-.012-.252-.022-.5-.038-.756,0-.072.019-.1.087-.112.6-.1,1.2-.213,1.795-.3a17.9,17.9,0,0,1,3.06-.176c.478.014.956.043,1.431.1.678.077,1.353.182,2.029.279.16.024.318.067.477.1.068.013.094.039.091.111-.036.73-.067,1.46-.1,2.19-.009.189-.017.379-.027.568C25.473,18.871,25.466,18.939,25.46,19.017ZM23.9,17.04l-.038-.2-.024-.019c-.019.2-.136.226-.3.193l.157.141-.095.19.014.013.189-.111c.025.03.049.053.068.08s.037.063.055.094l.049-.018a.2.2,0,0,1,.122-.334Zm-1.421-.157.088.367.173-.114.157.142.015-.013-.049-.2.174-.1c-.072-.028-.157-.014-.2-.05s-.04-.124-.058-.189C22.74,16.883,22.652,16.958,22.479,16.883Zm2.047-.794L24.5,16.1c-.033.06-.053.145-.1.171s-.128-.014-.194-.024l-.013.022.16.131-.1.2a.239.239,0,0,0,.12-.047c.055-.043.1-.041.139.02a.623.623,0,0,0,.088.09h.032c-.111-.179-.021-.263.146-.327C24.569,16.362,24.5,16.27,24.526,16.089Zm-4.4.087.165-.128a.255.255,0,0,0-.133-.006c-.059.013-.093,0-.108-.066A1.065,1.065,0,0,0,20,15.847l-.033-.015c.037.207-.079.248-.261.231.081.058.162.087.179.137s-.022.13-.041.218a.833.833,0,0,0,.089-.076c.057-.071.113-.081.179-.013a.415.415,0,0,0,.082.054l.013-.016Zm-2.426.967a.418.418,0,0,0-.1.01c-.1.04-.148.006-.174-.09a.456.456,0,0,0-.053-.093l-.034.227-.229.038.213.106-.037.2.015.028c.083-.164.193-.2.335-.075-.029-.079-.082-.143-.073-.2S17.639,17.207,17.7,17.143Zm3.246-.773.183-.137.164.129.016-.011-.066-.2.166-.122.008-.033c-.2.074-.263-.029-.294-.2-.007.2-.115.247-.285.219.061.054.142.084.159.135S20.97,16.277,20.946,16.37ZM24.172,18.4a.572.572,0,0,0,.1-.056.087.087,0,0,1,.147.022.9.9,0,0,0,.095.1c-.009-.1-.04-.177-.014-.229s.11-.069.184-.111l-.225-.034-.037-.232-.1.211-.2-.032-.03.017C24.275,18.146,24.26,18.264,24.172,18.4Zm-5.8-1.226-.041.209a3.5,3.5,0,0,1,.361-.048.679.679,0,0,0-.054-.108.089.089,0,0,1,.027-.147,1.041,1.041,0,0,0,.1-.094c-.1.007-.179.037-.229.01s-.06-.113-.092-.181a.4.4,0,0,1-.265.255Zm1.357.069.015-.016-.084-.19.181-.152c-.1.006-.177.036-.222.008s-.063-.116-.1-.2l-.055.223-.2.009a.225.225,0,0,0,.1.081c.063.026.086.063.055.131a1.055,1.055,0,0,0-.037.152l.178-.164ZM18,16.626l.014-.033-.11-.2.158-.13-.011-.018-.2.037-.09-.184-.033-.009c.037.194-.058.256-.238.252.187.048.239.151.161.329C17.752,16.527,17.858,16.466,18,16.626Zm4.259,1.02c-.024.192-.136.23-.308.2.2.076.165.2.111.343l.171-.117.176.153c-.02-.089-.062-.166-.041-.219s.1-.084.157-.124l.006-.029C22.343,17.906,22.267,17.827,22.255,17.646Zm2.933-.4c-.2.015-.262-.083-.267-.248l-.093.184-.2-.04-.009.018.153.133-.122.226.213-.112.139.155h.03C24.952,17.4,25,17.292,25.188,17.248ZM23.4,15.933l-.03.015-.082.19-.213-.027a1.312,1.312,0,0,1,.077.364l.181-.113.172.162c-.016-.092-.054-.171-.032-.224s.105-.075.162-.111C23.463,16.2,23.384,16.12,23.4,15.933Zm.011,2.162.179-.1.011-.032c-.2.05-.262-.05-.25-.245a.771.771,0,0,0-.047.069c-.066.147-.065.147-.217.136a.467.467,0,0,0-.052,0c.167.084.149.2.07.327l.013.017.171-.1.151.145.016-.009Zm-2.8-1.025.085.061.083.059.03,0c-.113-.148-.08-.256.086-.337-.182.038-.276-.025-.29-.206a.26.26,0,0,0-.04.1c-.009.094-.051.137-.149.117a.5.5,0,0,0-.087,0l-.022.028c.2.044.2.161.131.3l.014.02ZM17.8,18.435l.04.016.122-.168.2.105.01-.016-.1-.194.163-.131v-.034c-.179.1-.268.023-.307-.158a2.241,2.241,0,0,1-.274.277C17.828,18.171,17.885,18.268,17.8,18.435Zm3.593-1.586c.213.074.177.2.11.33l.014.016.165-.123.163.133c0-.071-.05-.143-.033-.191s.1-.087.15-.13v-.03c-.173.053-.247-.031-.261-.211C21.665,16.813,21.588,16.9,21.391,16.849Zm-2.1,1.061c-.068,0-.152.033-.2,0s-.06-.116-.088-.178c-.008.172-.091.253-.281.24.206.049.211.171.162.326l.156-.148.177.11.027,0C19.121,18.116,19.134,18,19.286,17.91Zm.794-.254-.028-.011c.018.191-.075.252-.25.22.061.054.143.084.162.136s-.022.13-.043.223l.175-.155.174.114.014-.015-.078-.192c.033-.025.063-.046.091-.068l.079-.068c-.083,0-.165.024-.21-.007S20.107,17.717,20.08,17.656Zm.788.169.183.13-.067.2.016.028c.11-.166.221-.148.353-.006-.119-.171-.062-.275.108-.364-.219.084-.262-.048-.292-.227-.034.1-.04.185-.085.22S20.955,17.819,20.868,17.825Zm-1.99-1.878-.032-.013c.022.187-.058.266-.247.246.183.059.224.166.131.33h.029l.156-.147.182.112a.572.572,0,0,1,.074-.362l-.215.023Zm3.079.094.169.138-.088.216c.08-.048.14-.115.2-.111s.111.077.166.12a.214.214,0,0,1,.137-.335c-.2.04-.262-.061-.259-.236A.535.535,0,0,1,21.957,16.041Z"/><path class="cls-1" d="M9.69,9.2A1.136,1.136,0,0,1,9.068,7.9c.011,0,.025,0,.033.011a5.109,5.109,0,0,0,1.425.8c.72.279,1.451.53,2.175.8a4.942,4.942,0,0,1,1.9,1.155,1.313,1.313,0,0,1,.43.777,2,2,0,0,1-.127.849,6.563,6.563,0,0,0-.249.908,2.082,2.082,0,0,0,.432,1.675,3.719,3.719,0,0,0,1.152,1,.177.177,0,0,1,.085.115c.025.51.042,1.021.066,1.532a.129.129,0,0,1-.092.15c-.149.054-.3.115-.451.176a1.786,1.786,0,0,1-.078-1.074,3.121,3.121,0,0,1-1.368.342,2.663,2.663,0,0,1,.483-1.3,4.215,4.215,0,0,1-1.4-.028c.08-.16.146-.318.235-.461s.2-.277.3-.412c-.259-.037-.532-.059-.8-.118s-.518-.152-.792-.234a2.822,2.822,0,0,1,.953-.926,8.37,8.37,0,0,1-1.689-.318,3.226,3.226,0,0,1,.77-.8,5.824,5.824,0,0,1-1.739-.461l.529-.6a3.628,3.628,0,0,1-1.625-.391,2.4,2.4,0,0,1,.588-.657c-.153-.037-.3-.062-.438-.11a2.366,2.366,0,0,1-.9-.569c-.049-.049-.045-.084,0-.132a1.331,1.331,0,0,1,.727-.384Z"/><path class="cls-1" d="M31.593,12.062a5.878,5.878,0,0,1-1.738.46,3.566,3.566,0,0,1,.79.8,8.169,8.169,0,0,1-1.71.316,2.848,2.848,0,0,1,.939.91,4.047,4.047,0,0,1-1.612.35,2.334,2.334,0,0,1,.559.9,4.071,4.071,0,0,1-1.381.021,2.681,2.681,0,0,1,.478,1.3,3.112,3.112,0,0,1-1.364-.34,1.868,1.868,0,0,1-.079,1.077c-.2-.085-.393-.166-.584-.254-.019-.009-.027-.062-.026-.094.018-.461.036-.922.061-1.383A.165.165,0,0,1,26,16.012a3.385,3.385,0,0,0,.752-.6A1.76,1.76,0,0,0,27.2,14.4a5.583,5.583,0,0,0-.05-1.291c-.025-.237-.055-.475-.067-.713a1.1,1.1,0,0,1,.433-.939,5.564,5.564,0,0,1,1.844-1.024c.788-.254,1.581-.492,2.372-.738a5.35,5.35,0,0,0,1.452-.638c.081-.056.158-.116.251-.185A1.227,1.227,0,0,1,33.078,9.9a2.257,2.257,0,0,1-.882.464l-.112.036a2.529,2.529,0,0,1,.6.668,4.361,4.361,0,0,1-1.633.384Z"/><path class="cls-1" d="M30.411,9.389c-.265.072-.5.138-.737.2-.031.008-.078-.026-.109-.052a13.349,13.349,0,0,0-6.243-2.819,13.373,13.373,0,0,0-9.88,2.25.165.165,0,0,1-.189.018c-.1-.048-.2-.082-.3-.121l-.317-.119a14.065,14.065,0,0,1,17.78.648Z"/><path class="cls-1" d="M17.623,22.541l-.016-.008c-.142-.13-.2-.121-.3.054-.053.087-.1.177-.148.266l-.035,0A4.151,4.151,0,0,1,17,22.31c-.046-.488-.074-.978-.106-1.467s-.061-1-.092-1.514c.169-.034.332-.072.5-.1.418-.068.836-.139,1.256-.193.364-.047.731-.08,1.1-.106.4-.029.808-.041,1.212-.063.073,0,.105.013.105.1,0,.926,0,1.853,0,2.78,0,.019,0,.038,0,.056l-.034.028a.607.607,0,0,1-.073-.111.309.309,0,0,0-.2-.168.178.178,0,0,1-.122-.132.576.576,0,0,0-.408-.446,1.192,1.192,0,0,1-.353-.284c-.074-.07-.124-.075-.18.01a.489.489,0,0,1-.389.223.215.215,0,0,0-.169.121,2.883,2.883,0,0,1-.169.245,1.35,1.35,0,0,1-.522.4.342.342,0,0,0-.125.12c-.071.108-.133.222-.2.333A1.155,1.155,0,0,1,17.623,22.541Z"/><path class="cls-1" d="M20.969,25.12a2.485,2.485,0,0,0-1.075-.5c-.467-.149-.937-.288-1.4-.44a2.085,2.085,0,0,1-1.21-.993c-.011-.02-.021-.041-.031-.062a.342.342,0,0,1-.009-.039c.038,0,.073-.006.108-.006q1.75,0,3.5,0c.1,0,.124.024.123.122,0,.6,0,1.2,0,1.8Z"/><path class="cls-1" d="M21.277,20.594c.168.045.322.094.479.128a.958.958,0,0,0,.662-.12c.129-.068.254-.143.381-.216a.709.709,0,0,1,.8.014,1.717,1.717,0,0,0,.631.284,1.12,1.12,0,0,0,.92-.213l.243-.189c-.013.244-.025.467-.038.69-.007.113-.012.226-.025.338a.133.133,0,0,1-.051.084c-.131.1-.273.177-.4.277a.662.662,0,0,1-.728.088,2.88,2.88,0,0,1-.329-.185,1.154,1.154,0,0,0-1.176-.045c-.134.067-.264.141-.391.22a.67.67,0,0,1-.708.013c-.266-.137-.267-.136-.267-.43Z"/><path class="cls-1" d="M21.284,22.237c.19.043.368.091.549.122a.841.841,0,0,0,.52-.094c.14-.069.276-.146.409-.227a.729.729,0,0,1,.857.007,1.571,1.571,0,0,0,.674.279,1.123,1.123,0,0,0,.86-.226l.109-.081.026.011a4.22,4.22,0,0,1-.1.552,6.3,6.3,0,0,1-.274.679.408.408,0,0,1-.326.22A.723.723,0,0,1,24.1,23.4c-.084-.047-.168-.094-.25-.144a1.2,1.2,0,0,0-1.309-.011c-.11.062-.219.125-.328.189a.627.627,0,0,1-.627.011c-.3-.145-.3-.145-.3-.479,0-.242,0-.485,0-.727C21.283,22.234,21.288,22.228,21.284,22.237Z"/><path class="cls-1" d="M21.282,19.43c0-.156,0-.312,0-.468,0-.066.014-.1.088-.094.384.021.769.031,1.152.058s.761.056,1.137.108c.515.07,1.026.162,1.539.245a.27.27,0,0,1,.039.008c.066.023.183.039.188.072a1.429,1.429,0,0,1-.017.344c0,.011-.031.021-.047.031a2.948,2.948,0,0,0-.428.265.742.742,0,0,1-.927.058,2.932,2.932,0,0,0-.535-.259.991.991,0,0,0-.763.07c-.164.078-.324.168-.48.262a.644.644,0,0,1-.679,0c-.266-.14-.266-.139-.266-.433Z"/><path class="cls-1" d="M7.676,31.067l.194.27-.122.089c-.225-.312-.449-.619-.678-.936l.116-.089.2.263,1.364-.99-.01-.024-2.017.409c.321-.629.63-1.232.938-1.834l-.022-.018-1.335.967.19.271-.119.09-.528-.724.119-.09c.068.089.131.173.2.265l1.854-1.348-.19-.267.118-.09c.13.179.259.352.38.529.015.022,0,.075-.017.106q-.415.822-.834,1.642c-.017.034-.033.07-.06.127l.387-.077,1.528-.318a.11.11,0,0,1,.086.016c.145.194.286.39.432.592l-.118.087-.2-.264Z"/><path class="cls-1" d="M26.414,5.916c-.071-.7-.139-1.379-.206-2.054l-.027,0c-.2.508-.395,1.017-.6,1.538l.3.124-.049.141L25,5.338l.055-.137.309.112c.277-.712.552-1.419.829-2.133l-.306-.126.053-.14c.2.08.4.155.594.237a.127.127,0,0,1,.054.093c.032.284.059.568.087.852q.053.525.106,1.05a.512.512,0,0,0,.021.069c.034-.031.06-.054.085-.079.419-.412.84-.823,1.255-1.239a.163.163,0,0,1,.213-.048c.194.085.393.155.6.235l-.054.14-.309-.115c-.276.71-.549,1.415-.828,2.133l.308.127-.054.137-1.082-.419.053-.139.311.119q.3-.786.608-1.569l-.025-.015Z"/><path class="cls-1" d="M4.46,24.859l.065.281c-.135.064-.14.061-.174-.076-.066-.27-.133-.54-.2-.811-.031-.129-.031-.129.115-.157.019.071.034.145.059.216.008.023.046.057.062.053.322-.075.644-.155.977-.237-.1-.422-.2-.835-.309-1.261l-.584.139c-.116.028-.232.058-.348.083-.069.015-.1.044-.073.117s.031.122.048.193l-.143.039c-.087-.353-.172-.7-.259-1.056l.141-.038.08.288,2.224-.543L6.1,21.917c-.03-.127-.03-.127.116-.147.085.344.17.69.257,1.049l-.141.038-.079-.285-.987.239.31,1.265.421-.1c.164-.04.327-.083.493-.119.058-.013.08-.032.06-.094s-.034-.133-.052-.21l.146-.039c.086.355.171.7.256,1.051-.143.053-.143.053-.176-.078-.012-.051-.025-.1-.041-.167Z"/><path class="cls-1" d="M20.916,4.788H21.2v.146H20.116V4.79c.072,0,.14,0,.209,0s.1-.02.093-.09c0-.129,0-.259,0-.389,0-.568,0-1.136,0-1.7,0-.091-.025-.128-.118-.118a1.705,1.705,0,0,1-.176,0V2.354a.3.3,0,0,1,.066-.011c.425,0,.85,0,1.275.014a.61.61,0,0,1,.65.528.667.667,0,0,1-.4.8c-.041.019-.084.036-.131.056a.46.46,0,0,0,.027.058c.176.273.351.547.53.819.1.147.1.145.37.181v.137c-.219,0-.431.007-.643,0-.108,0-.169-.1-.223-.181-.191-.3-.383-.6-.571-.9a.121.121,0,0,0-.162-.061Zm0-1.194h.241a.426.426,0,0,0,.409-.263A.645.645,0,0,0,21.6,2.9a.4.4,0,0,0-.388-.349,1.183,1.183,0,0,0-.238,0,.09.09,0,0,0-.062.062C20.912,2.936,20.913,3.257,20.913,3.594Z"/><path class="cls-1" d="M34.45,31.5l-.119-.09.175-.243L32.667,29.8l-.184.235-.117-.085c.034-.047.064-.089.095-.13.212-.286.421-.573.638-.854a1.352,1.352,0,0,1,.256-.262.573.573,0,0,1,.631-.045.656.656,0,0,1,.424.567,2.906,2.906,0,0,1-.032.379c.1.008.211.018.321.025.235.015.471.026.706.045a.3.3,0,0,0,.319-.15.3.3,0,0,1,.043-.05l.121.091c-.133.173-.256.346-.395.5a.28.28,0,0,1-.2.075c-.275-.007-.55-.028-.825-.046-.119-.007-.238-.025-.357-.024-.041,0-.082.043-.14.075l.825.617.18-.235.12.088Zm-.613-1.448c.24-.264.292-.438.2-.641a.664.664,0,0,0-.551-.371c-.253.016-.348.221-.475.4Z"/><path class="cls-1" d="M19.107,34.931v-.148c.121,0,.239,0,.357,0,.286.01.571.028.856.034a1.3,1.3,0,0,1,.248,2.576,1.432,1.432,0,0,1-.307.017c-.369-.008-.738-.021-1.106-.034-.046,0-.091-.009-.134-.014-.018-.137-.015-.139.11-.137.209,0,.186.037.194-.187.024-.664.047-1.328.075-1.992,0-.085-.014-.125-.106-.117C19.235,34.935,19.176,34.931,19.107,34.931Zm1,2.36a.792.792,0,0,0,.8-.414,1.257,1.257,0,0,0,.014-1.334.794.794,0,0,0-.605-.425c-.109-.013-.219-.008-.328-.014-.058,0-.066.028-.067.074,0,.123-.005.245-.009.368q-.03.837-.063,1.673c0,.052.016.074.068.072S20.039,37.291,20.1,37.291Z"/><path class="cls-1" d="M9.886,6.575l-.244.174L9.554,6.63l.458-.339c.185-.135.368-.274.556-.405a1.288,1.288,0,0,1,2.038.822,1.228,1.228,0,0,1-.54,1.3c-.181.13-.36.262-.539.4a.214.214,0,0,1-.336-.053l-.815-1.108Zm1.727,1.512c.108-.08.212-.15.308-.231a.78.78,0,0,0,.277-.674,1.226,1.226,0,0,0-.422-.873.953.953,0,0,0-1.451.025Z"/><path class="cls-1" d="M6.156,27.793a1.282,1.282,0,0,1-1.3-1.285,1.386,1.386,0,0,1,1.4-1.337,1.285,1.285,0,0,1,1.29,1.292A1.359,1.359,0,0,1,6.156,27.793Zm.353-2.158-.006.017c-.079.009-.159.012-.237.027a1.416,1.416,0,0,0-1.082.789.533.533,0,0,0,.366.794,1.313,1.313,0,0,0,.958-.088,1.269,1.269,0,0,0,.737-.779.5.5,0,0,0-.3-.644A3.167,3.167,0,0,0,6.509,25.635Z"/><path class="cls-1" d="M37.493,13.412a1.361,1.361,0,0,1-1.352,1.339,1.28,1.28,0,0,1-1.331-1.277,1.372,1.372,0,0,1,1.383-1.344A1.287,1.287,0,0,1,37.493,13.412Zm-1.635.852a1.5,1.5,0,0,0,1.1-.489,1.154,1.154,0,0,0,.186-.269.55.55,0,0,0-.393-.847,1.428,1.428,0,0,0-1.212.271,1.147,1.147,0,0,0-.441.575.5.5,0,0,0,.265.653A1,1,0,0,0,35.858,14.264Z"/><path class="cls-1" d="M17.754,37.216a1.822,1.822,0,0,1-.221-.056.161.161,0,0,1-.068-.086q-.407-1-.811-2.011a.211.211,0,0,0-.064-.093c-.132.553-.264,1.105-.4,1.668l.3.08-.032.142-.85-.2.032-.149.239.06c.053.015.082,0,.1-.058.149-.629.3-1.256.452-1.885a.268.268,0,0,0-.208-.336c-.039-.009-.077-.02-.123-.033l.024-.13a.336.336,0,0,1,.078,0c.194.045.386.1.581.137a.18.18,0,0,1,.145.127c.241.617.487,1.233.731,1.85l.04.1h.026c.127-.528.254-1.055.383-1.593l-.3-.082.031-.142.854.2-.037.146-.322-.071C18.139,35.607,17.948,36.405,17.754,37.216Z"/><path class="cls-1" d="M31.922,6.173l.1-.111c.185.169.366.334.545.5a.089.089,0,0,1,.022.069c-.067.53-.136,1.059-.2,1.589-.024.183-.046.367-.069.551l.023.014,1.109-1.217-.227-.211.1-.111.65.591-.1.111-.263-.231a.974.974,0,0,1-.069.1q-.432.477-.866.95a.227.227,0,0,1-.094.067c-.258.073-.517.141-.79.215l.246-2-.024-.012L30.857,8.3l.225.215-.1.11c-.216-.2-.428-.391-.648-.591l.1-.112.245.218.522-.569c.277-.3.56-.6.828-.917a.707.707,0,0,0,.094-.273c0-.016-.023-.045-.041-.063C32.032,6.273,31.98,6.227,31.922,6.173Z"/><path class="cls-1" d="M30.452,31.99l-.221.2-.1-.108.8-.735.1.108-.215.2.3.335c.228.25.455.5.685.75a2.32,2.32,0,0,0,.207.2.521.521,0,0,0,.738,0,.7.7,0,0,0,.092-1.087c-.33-.372-.669-.737-1.013-1.115l-.245.217-.1-.114.664-.607.1.111-.245.225.381.418c.219.241.44.48.656.723a.867.867,0,0,1,.266.674,1,1,0,0,1-.078.3,1.337,1.337,0,0,1-.7.7.815.815,0,0,1-1-.2c-.335-.36-.664-.725-1-1.088C30.512,32.053,30.485,32.025,30.452,31.99Z"/><path class="cls-1" d="M4.091,15.992,4,16.27l-.135-.037c.008-.033.013-.064.022-.094q.123-.42.249-.838c.037-.124.041-.125.172-.065l-.072.275.506.153c.359.105.715.221,1.078.311a.585.585,0,0,0,.786-.6.673.673,0,0,0-.518-.739c-.458-.144-.92-.276-1.38-.415-.061-.019-.091-.009-.107.057s-.045.151-.068.224c-.155-.022-.155-.022-.114-.155.073-.244.147-.488.223-.741l.143.04c-.021.072-.036.139-.061.2-.035.086-.016.124.079.151.446.128.89.263,1.333.4a1.556,1.556,0,0,1,.24.095.754.754,0,0,1,.448.594,1.321,1.321,0,0,1-.357,1.156.807.807,0,0,1-.873.191c-.463-.141-.927-.278-1.39-.416C4.167,16.01,4.132,16,4.091,15.992Z"/><path class="cls-1" d="M10.31,30.59l-.218-.207.1-.107,1.194,1.1.084-.068.145.128-.416.449-.144-.127.188-.212-.613-.568-.644.7.481.442.166-.208.161.14-.518.562-.145-.131.181-.206-.474-.436-.674.727.641.591.2-.212.143.135-.344.375L8.429,32.183l.117-.094.212.184Z"/><path class="cls-1" d="M16,4.51c.022-.007.037-.014.053-.018a.389.389,0,0,0,.316-.431.969.969,0,0,0-.172-.492.381.381,0,0,0-.453-.159c-.082.024-.162.055-.253.086.236.708.468,1.408.705,2.12l.193-.062c.129-.042.129-.043.17.1l-1.071.356-.045-.142.281-.1L15.006,3.6l-.284.083-.05-.132c.035-.013.063-.027.093-.037.337-.111.671-.229,1.011-.33a1.2,1.2,0,0,1,.419-.057.654.654,0,0,1,.609.518.736.736,0,0,1-.243.8,1.122,1.122,0,0,1-.343.192C16.056,4.7,16.045,4.685,16,4.51Z"/><path class="cls-1" d="M29.694,6.17l-.534.836.733.469.162-.243.167.106-.276.43L28.372,6.762l.079-.126.255.158L29.94,4.862,29.69,4.7l.079-.127,1.366.871.073-.08.161.1-.327.516-.162-.1c.04-.067.081-.126.114-.19.01-.019.009-.064,0-.073-.217-.144-.438-.284-.667-.43l-.51.8.543.348.148-.222.168.1-.41.642-.169-.1.145-.236Z"/><path class="cls-1" d="M13.443,5.656c.154.3.3.586.455.881l.775-.4-.127-.256.168-.1.237.454L13.29,7.1l-.069-.133.265-.14-1.05-2.037-.266.133L12.1,4.788l1.442-.744-.034-.1.167-.089.282.541-.17.09-.136-.248-.742.381.434.843.573-.294L13.8,4.924l.171-.094.349.677-.171.1-.13-.244Z"/><path class="cls-1" d="M26.687,36.713l-.056-.137.276-.117c-.278-.709-.555-1.414-.837-2.131l-.27.1c-.078-.123-.077-.129.047-.178l1.295-.511c.033-.013.066-.028.1-.044l-.023-.1.175-.069.224.568-.176.073-.11-.262-.781.3.349.884.6-.238-.086-.237a.224.224,0,0,1,.02-.021c.152-.084.152-.083.214.075.069.18.139.359.208.538,0,.006,0,.013.007.03l-.175.078-.107-.257-.6.235c.123.311.241.612.363.924l.81-.319-.1-.271.182-.071.186.472Z"/><path class="cls-1" d="M15,36.307l-.06.124-.861-.392.065-.133.246.106c.009-.095.018-.179.024-.263.008-.119.013-.238.022-.357a.093.093,0,0,0-.062-.108c-.252-.11-.5-.227-.753-.338a.109.109,0,0,0-.1,0c-.159.144-.313.294-.48.453l.288.135-.062.136-.73-.333.059-.131a.349.349,0,0,1,.1.037c.095.069.158.034.235-.041.6-.573,1.2-1.141,1.8-1.711.045-.042.079-.082.152-.038s.138.054.13.165c-.036.523-.064,1.047-.094,1.57-.018.325-.031.651-.053.975C14.857,36.272,14.962,36.246,15,36.307Zm-.478-2.279-.029-.011-.765.726.727.329C14.482,34.711,14.5,34.369,14.526,34.028Z"/><path class="cls-1" d="M19.124,4.9c-.118-.2-.223-.376-.334-.553a.1.1,0,0,0-.08-.033c-.278.045-.555.093-.832.146a.113.113,0,0,0-.078.066c-.049.2-.091.406-.139.627l.311-.044L18,5.252l-.729.128c-.059.01-.084-.025-.078-.072,0-.028.04-.075.06-.075.144,0,.181-.08.207-.205.165-.791.337-1.58.507-2.371A.19.19,0,0,1,18.2,2.5c.031.009.056.052.075.084.422.7.845,1.4,1.263,2.1.057.1.11.166.241.1l.028.154-.934.163-.028-.146ZM18.106,3.187l-.026,0L17.858,4.23l.784-.139Z"/><path class="cls-1" d="M24.814,34.541l0-.113.185-.037.14.637c-.03.01-.052.014-.072.023-.1.045-.143,0-.147-.094,0-.122-.072-.17-.184-.191a.561.561,0,0,0-.432.051.315.315,0,0,0,0,.555c.212.114.445.187.665.286a1.524,1.524,0,0,1,.347.187.741.741,0,0,1,.259.8.724.724,0,0,1-.581.54,1.057,1.057,0,0,1-.611-.023l.012.137-.191.041c-.05-.227-.1-.448-.15-.677l.194-.04a.511.511,0,0,1,.026.1c0,.171.108.232.254.26a.705.705,0,0,0,.466-.048.343.343,0,0,0,.046-.617,3.63,3.63,0,0,0-.483-.23c-.165-.074-.339-.135-.5-.221a.7.7,0,0,1,.088-1.227,1.069,1.069,0,0,1,.522-.1Z"/><path class="cls-1" d="M29.634,32.477l-.069-.136.166-.1.358.59-.169.109a1.011,1.011,0,0,1-.074-.121.162.162,0,0,0-.172-.1.873.873,0,0,0-.9,1,1.293,1.293,0,0,0,.824,1.109.9.9,0,0,0,1.13-.387.133.133,0,0,0,0-.17c-.037-.05-.066-.106-.105-.168l.174-.111.269.44a1.808,1.808,0,0,1-1.532.8,1.317,1.317,0,0,1-1.154-.942,1.333,1.333,0,0,1,.564-1.536,1.516,1.516,0,0,1,.621-.253A.408.408,0,0,0,29.634,32.477Z"/><path class="cls-1" d="M6.011,10.992l-.093-.072.094-.165.574.323-.1.172a1.168,1.168,0,0,1-.133-.074.157.157,0,0,0-.213.007.6.6,0,0,0-.273.365.315.315,0,0,0,.4.38c.217-.079.419-.2.631-.29a2.038,2.038,0,0,1,.4-.149.728.728,0,0,1,.758.309.718.718,0,0,1,.046.791,1.047,1.047,0,0,1-.436.466l.107.083-.09.171-.608-.342.1-.174a1.369,1.369,0,0,0,.183.1.213.213,0,0,0,.145,0,.631.631,0,0,0,.413-.581.319.319,0,0,0-.4-.318,4.708,4.708,0,0,0-.559.227,4.621,4.621,0,0,1-.461.208.676.676,0,0,1-.724-.21.662.662,0,0,1-.137-.7A1.085,1.085,0,0,1,6.011,10.992Z"/><path class="cls-1" d="M38.515,16.519l-.578.145-.049-.183.273-.078c-.038-.153-.075-.3-.113-.453-.024-.1-.046-.193-.077-.288-.008-.023-.052-.055-.072-.05-.283.067-.565.14-.861.215l.159.628.257-.062.056.187-.737.188-.054-.186.264-.075c-.052-.206-.1-.409-.157-.625l-.4.1c-.182.046-.365.1-.548.139-.067.015-.08.042-.059.1a1.614,1.614,0,0,1,.039.171l-.141.036-.261-1.025.141-.039.083.289L37.9,15.1l-.07-.291.145-.035.4,1.561C38.5,16.336,38.515,16.353,38.515,16.519Z"/><path class="cls-1" d="M34.553,26.376l.068-.18.11.022.661-1.754-.1-.054.069-.183.612.231-.069.188-.307-.112-.246.649,2.084.785c.046-.119.091-.231.138-.351l.139.05-.442,1.176-.14-.053c.036-.1.068-.192.1-.283.02-.049.019-.078-.038-.1q-.992-.37-1.982-.744a.169.169,0,0,0-.042,0c-.078.207-.158.416-.243.639l.3.12-.069.189Z"/><path class="cls-1" d="M23.963,5.042l.37.071-.019.142-.6-.1-.528-.092c-.125-.022-.125-.023-.079-.16l.367.054c.123-.729.246-1.454.371-2.191-.153-.028-.295-.055-.438-.078-.078-.013-.178-.053-.229-.02s-.044.141-.063.216c-.006.023-.01.045-.018.082L22.9,2.94c.027-.167.051-.326.079-.485s.033-.172.219-.125l0,.106,1.842.312.035-.1.192.026-.107.643-.2-.029.051-.322-.685-.116C24.21,3.586,24.087,4.309,23.963,5.042Z"/><path class="cls-1" d="M24.185,24.007c-.176.07-.353.151-.537.21-.583.187-1.169.365-1.754.549a1.585,1.585,0,0,0-.61.347V23.887c.141.042.278.092.418.124a.961.961,0,0,0,.675-.092c.156-.081.307-.171.461-.255a.707.707,0,0,1,.754.028C23.777,23.805,23.975,23.9,24.185,24.007Z"/><path class="cls-1" d="M35.3,9.77l-1.769,1.355.227.3-.119.092L33,10.683l.133-.07.1.116L35,9.378l-.423-.555-.26.2-.125-.157.521-.4.12.153c-.105.064-.051.122,0,.189q.5.651,1,1.3c.02.026.041.05.063.077l.09-.053.122.154-.522.4-.12-.159.255-.2Z"/><path class="cls-1" d="M35.663,24.081l-.146-.031c.069-.354.138-.7.206-1.05.143-.011.151,0,.128.119-.01.051-.017.1-.03.18l.977-.39-.763-.7-.073.328-.144-.026.17-.871c.148-.007.159,0,.124.133a.222.222,0,0,0,.08.256c.259.224.506.461.762.688a.412.412,0,0,0,.181.09c.327.07.657.129.984.2.074.015.1,0,.111-.077a1.819,1.819,0,0,1,.043-.2l.144.027-.208,1.068-.145-.03.048-.287-.5-.1c-.156-.031-.312-.065-.469-.087a.412.412,0,0,0-.2.016c-.385.153-.767.314-1.151.469a.141.141,0,0,0-.1.122C35.686,23.976,35.674,24.024,35.663,24.081Z"/><path class="cls-1" d="M12.239,32.172,11.994,32l.084-.123.9.607-.082.125-.247-.162L11.409,34.3l.71.479.166-.241.162.113-.284.421-1.538-1.034.085-.125.25.166Z"/><path class="cls-1" d="M36.428,28.222l.073-.132.068-.123.134.068-.52.961-.131-.073.139-.265-2.014-1.09-.149.259-.129-.068c.174-.321.344-.637.519-.961l.129.074-.136.259Z"/><path class="cls-1" d="M7.055,13.9a.256.256,0,1,1-.252.263A.251.251,0,0,1,7.055,13.9Z"/><path class="cls-1" d="M8.579,11.585a.248.248,0,1,1,.249-.254A.25.25,0,0,1,8.579,11.585Z"/><path class="cls-1" d="M20.074,12.362c.223-.019.433-.039.643-.052a1.08,1.08,0,0,1,.192.029c-.2.073-.364.137-.533.2a.057.057,0,0,1-.046,0C20.25,12.482,20.171,12.428,20.074,12.362Z"/><path class="cls-1" d="M12.166,24.127a.882.882,0,0,1-.066-.172,1.978,1.978,0,0,1,.127-1.137.659.659,0,0,1,.1-.152,4.72,4.72,0,0,0-.13,1.449Z"/><polyline class="cls-2" points="58.01 10.523 58.01 5.705 56.189 5.705 56.189 4.595 61.984 4.595 61.984 5.705 60.163 5.705 60.163 16.784 61.984 16.784 61.984 17.894 56.189 17.894 56.189 16.784 58.01 16.784 58.01 11.833 51.194 11.833 51.194 16.784 53.037 16.784 53.037 17.894 47.197 17.894 47.197 16.784 49.04 16.784 49.04 5.705 47.197 5.705 47.197 4.595 53.037 4.595 53.037 5.705 51.194 5.705 51.194 10.523 58.01 10.523"/><path class="cls-2" d="M62.424,13.254a5.111,5.111,0,1,0,5.107-4.907,4.955,4.955,0,0,0-5.107,4.907m2.287,0c0-2.509,1.066-4,2.82-4,1.776,0,2.82,1.488,2.82,4s-1.044,4-2.82,4C65.777,17.251,64.711,15.763,64.711,13.254Z"/><path class="cls-2" d="M73.193,16.985h1.643V9.524H73.193V8.613h3.685V9.679a8.155,8.155,0,0,1,3.664-1.332A2.339,2.339,0,0,1,82.829,9.9a7.065,7.065,0,0,1,3.729-1.554c1.733,0,2.665,1.11,2.665,3.108v5.53h1.621v.909H85.627v-.909H87.18v-4.93c0-1.6-.555-2.353-1.709-2.353a4.778,4.778,0,0,0-2.421,1v6.284h1.622v.909H79.454v-.909h1.554V12.344c0-1.576-.222-2.642-1.665-2.642a4.555,4.555,0,0,0-2.465,1v6.284h1.577v.909H73.193v-.909"/><path class="cls-2" d="M99.659,12.521c-.355-2.686-1.821-4.174-4.13-4.174-2.553,0-4.219,1.821-4.219,4.64a4.885,4.885,0,0,0,4.863,5.174,5.693,5.693,0,0,0,3.486-1.176l.155-1a5.8,5.8,0,0,1-3.086,1.066c-1.976,0-3.2-1.865-3.2-4.53h6.128m-6.128-.91c.133-1.576.643-2.354,1.864-2.354,1.177,0,1.911.844,2.088,2.354Z"/><polyline class="cls-2" points="100.836 16.985 102.478 16.985 102.478 4.195 100.836 4.195 100.836 3.285 104.521 3.285 104.521 16.985 106.097 16.985 106.097 17.894 100.836 17.894 100.836 16.985"/><path class="cls-2" d="M107.674,10.523a5.191,5.191,0,0,1,2.619-1c1.222,0,1.555.755,1.555,1.843v1.244l-2.043.51c-1.82.444-2.575,1.221-2.575,2.6a2.287,2.287,0,0,0,2.153,2.442,5.186,5.186,0,0,0,2.71-1.377c.488.977.976,1.377,1.686,1.377a3.577,3.577,0,0,0,2.021-.755v-.622a7.473,7.473,0,0,1-.955.134c-.555,0-.954-.578-.954-1.51v-3.8c0-2.02-1.111-3.264-2.909-3.264a5.65,5.65,0,0,0-3.531,1.532l.223.644m4.174,3v2.488a2.516,2.516,0,0,1-1.51.688,1.191,1.191,0,0,1-1.2-1.243C109.139,14.542,109.916,13.987,111.848,13.52Z"/><path class="cls-2" d="M116.4,16.985h1.687V9.524H116.4V8.613h3.73V9.657a5.779,5.779,0,0,1,3.441-1.31,2.446,2.446,0,0,1,2.553,2.709v5.929h1.643v.909h-5.151v-.909h1.466V11.522c0-1.266-.689-1.931-1.643-1.931a3.955,3.955,0,0,0-2.309.977v6.417h1.531v.909H116.4v-.909"/><path class="cls-2" d="M133.562,4.2h1.644V9.524a4.41,4.41,0,0,0-2.821-1.177c-2.242,0-4.13,2.154-4.13,4.752,0,2.93,2.088,4.795,5.307,4.795h5.328v-.909h-1.642V3.285h-3.686V4.2m1.644,12.79h-.889c-2.2,0-3.775-1.044-3.775-3.886,0-2.265.933-3.575,2.487-3.575a3.177,3.177,0,0,1,2.177,1.044Z"/><path class="cls-2" d="M47.908,30.586h1.11v1.687a3.5,3.5,0,0,0,2.687,1.532,2.152,2.152,0,0,0,2.22-2.131c0-2.243-3.087-2.687-4.885-4.485a3.7,3.7,0,0,1-1.2-2.687,3.572,3.572,0,0,1,3.774-3.442,4.6,4.6,0,0,1,2.576.667v-.711H55.3v3.619h-1.11V23.192a2.926,2.926,0,0,0-2.309-1.132,1.872,1.872,0,0,0-2.131,1.909c0,2.087,3.041,2.4,4.951,4.308a3.406,3.406,0,0,1,1.132,2.686,3.726,3.726,0,0,1-4,3.841,5.029,5.029,0,0,1-2.819-.932v.976h-1.11V30.586"/><path class="cls-2" d="M65.515,29.209c-.356-2.686-1.821-4.174-4.13-4.174-2.553,0-4.219,1.82-4.219,4.64a4.884,4.884,0,0,0,4.863,5.173,5.7,5.7,0,0,0,3.486-1.176l.155-1a5.808,5.808,0,0,1-3.086,1.065c-1.976,0-3.2-1.865-3.2-4.53h6.129m-6.129-.91c.134-1.576.644-2.354,1.865-2.354,1.177,0,1.91.843,2.088,2.354Z"/><path class="cls-2" d="M74.436,27.966h-.644a2.261,2.261,0,0,0-2.22-2.021c-1.488,0-2.487,1.088-2.487,3.464,0,2.731,1.043,4.2,2.975,4.2a5.176,5.176,0,0,0,2.621-1.021c.176,0,.31.4.31.555,0,.378-1.532,1.709-3.619,1.709-2.6,0-4.574-2.22-4.574-5.128a4.394,4.394,0,0,1,4.44-4.685,5.343,5.343,0,0,1,2.376.577l.178-.554h.644v2.908"/><path class="cls-2" d="M75.453,25.3H79.16v6.4c0,1.2.644,1.909,1.688,1.909a4.16,4.16,0,0,0,2.265-.954V26.212H81.47V25.3h3.686v8.371h1.665v.91H83.113v-1.11a5.061,5.061,0,0,1-3.331,1.376c-1.643,0-2.664-.932-2.664-2.841V26.212H75.453V25.3"/><path class="cls-2" d="M87.6,33.672h1.665v-7.46H87.6V25.3h3.708v1.554h.044c1.11-1.376,1.665-1.82,2.265-1.82a2.052,2.052,0,0,1,1.576.888,6.54,6.54,0,0,1-.844,2.287c-.533-.977-.844-1.31-1.465-1.31-.6,0-1.066.4-1.576,1.111v5.661h1.665v.91H87.6v-.91"/><path class="cls-2" d="M100.143,22.015a1.266,1.266,0,1,1-1.266-1.265,1.281,1.281,0,0,1,1.266,1.265M96.434,33.672h1.621v-7.46H96.434V25.3H100.1v8.371h1.576v.91h-5.24Z"/><path class="cls-2" d="M102.651,26.212l3.331-3.442V25.3h2.6v.911h-2.6v5.373c0,1.465.4,2.154,1.243,2.154.888,0,1.332-.711,1.555-.711.133,0,.222.178.222.289a2.567,2.567,0,0,1-2.443,1.531c-1.687,0-2.62-1.088-2.62-3.085V26.212h-1.288"/><polyline class="cls-2" points="109.467 25.301 113.974 25.301 113.974 26.212 112.798 26.212 115.018 32.162 117.327 26.212 116.239 26.212 116.239 25.301 119.348 25.301 119.348 26.212 118.238 26.212 112.798 40 111.066 40 113.686 34.183 110.689 26.212 109.467 26.212 109.467 25.301"/></g></svg>