<svg xmlns="http://www.w3.org/2000/svg" width="140" height="40" viewBox="0 0 140 40"><defs><style>.cls-1{fill:#a5adba;fill-rule:evenodd;}</style></defs><title>ncr-140x40</title><g id="ncr"><polygon class="cls-1" points="91.847 20.369 91.847 19.42 91.847 18.681 91.953 17.836 92.164 17.098 92.375 16.359 92.586 15.726 92.797 15.092 93.113 14.459 93.43 13.931 93.852 13.404 94.169 12.876 94.591 12.454 95.119 12.032 95.541 11.609 96.069 11.187 96.596 10.871 97.124 10.554 97.652 10.237 98.179 10.026 98.813 9.71 99.34 9.499 99.974 9.288 100.607 9.182 101.24 8.971 101.873 8.865 102.507 8.76 103.14 8.654 103.773 8.654 104.406 8.549 105.04 8.549 105.673 8.443 106.728 8.443 107.256 8.549 107.678 8.549 108.206 8.549 108.628 8.549 109.156 8.549 109.578 8.654 110 8.654 110.528 8.76 110.95 8.76 111.372 8.865 111.9 8.865 112.322 8.971 112.744 9.077 113.272 9.182 113.694 9.288 113.694 14.037 113.377 13.931 113.061 13.826 112.744 13.72 112.427 13.615 112.005 13.509 111.583 13.404 111.161 13.298 110.633 13.087 110.106 13.087 109.683 12.982 109.156 12.876 108.522 12.77 107.995 12.665 107.467 12.665 106.834 12.665 106.306 12.559 105.145 12.665 104.09 12.665 103.034 12.876 102.19 13.087 101.346 13.298 100.607 13.615 99.868 14.037 99.235 14.459 98.707 14.987 98.285 15.514 97.863 16.148 97.546 16.887 97.335 17.625 97.124 18.47 97.018 19.314 97.018 20.369 97.018 21.108 97.124 21.847 97.335 22.586 97.546 23.219 97.863 23.852 98.285 24.485 98.813 25.013 99.34 25.541 99.974 25.963 100.712 26.28 101.451 26.596 102.296 26.913 103.14 27.124 104.09 27.335 105.145 27.335 106.306 27.441 106.834 27.441 107.467 27.335 107.995 27.335 108.628 27.335 109.156 27.23 109.789 27.124 110.317 27.018 110.844 26.913 111.372 26.807 111.794 26.702 112.322 26.596 112.744 26.491 113.166 26.385 113.483 26.28 113.905 26.174 114.222 26.069 114.222 30.712 113.694 30.818 113.272 30.818 112.744 30.923 112.322 31.029 111.794 31.135 111.266 31.24 110.844 31.24 110.317 31.346 109.789 31.346 109.261 31.451 108.733 31.451 108.311 31.451 107.784 31.557 107.256 31.557 106.728 31.557 106.306 31.557 105.567 31.557 104.934 31.557 104.301 31.451 103.668 31.346 102.929 31.24 102.296 31.135 101.029 30.923 100.396 30.712 99.763 30.501 99.129 30.29 98.602 30.079 97.968 29.763 97.441 29.446 96.913 29.235 96.385 28.813 95.858 28.496 95.435 28.074 94.908 27.757 94.485 27.335 94.169 26.807 93.747 26.385 93.43 25.858 93.113 25.33 92.797 24.802 92.586 24.274 92.269 23.641 92.164 23.008 91.953 22.375 91.847 21.741 91.847 21.003 91.847 20.369 91.847 20.369"/><polygon class="cls-1" points="128.259 8.76 129.631 8.865 130.897 8.971 131.953 9.077 133.008 9.288 133.852 9.604 134.591 9.921 135.33 10.343 135.858 10.871 136.385 11.293 136.807 11.821 137.124 12.454 137.335 13.087 137.546 13.826 137.652 14.565 137.757 15.303 137.757 16.042 137.757 16.675 137.652 17.203 137.546 17.836 137.335 18.364 137.124 18.892 136.807 19.42 136.491 19.842 136.069 20.369 135.646 20.792 135.119 21.108 134.485 21.53 133.958 21.847 133.219 22.058 132.48 22.269 131.741 22.48 130.897 22.586 130.369 22.586 130.369 22.586 130.475 22.586 130.58 22.586 130.686 22.691 130.792 22.691 131.003 22.797 131.108 22.902 131.319 23.113 139.657 31.24 133.219 31.24 121.609 19.314 127.309 19.314 128.259 19.314 129.103 19.208 129.736 19.103 130.369 18.892 130.897 18.681 131.319 18.47 131.636 18.153 131.953 17.942 132.269 17.625 132.375 17.309 132.48 16.992 132.586 16.781 132.691 16.464 132.691 16.253 132.691 16.042 132.691 15.937 132.691 15.303 132.691 14.987 132.691 14.67 132.586 14.354 132.375 14.142 132.269 13.826 132.058 13.615 131.741 13.404 131.425 13.298 131.108 13.087 130.686 12.982 130.158 12.876 129.631 12.77 128.997 12.77 128.259 12.665 121.609 12.665 121.609 31.24 116.649 31.24 116.649 8.76 128.259 8.76 128.259 8.76"/><polygon class="cls-1" points="85.198 22.48 85.198 22.48 85.198 22.269 85.092 22.164 85.092 21.847 84.987 21.636 84.987 21.319 84.881 21.003 84.881 20.686 84.881 8.76 89.631 8.76 89.631 31.768 74.433 19.103 74.116 18.786 73.905 18.575 73.588 18.364 73.483 18.047 73.272 17.942 73.166 17.731 73.166 17.625 73.166 17.625 73.166 17.625 73.166 17.731 73.166 17.942 73.272 18.153 73.272 18.364 73.272 18.681 73.377 18.892 73.377 19.208 73.377 31.24 68.628 31.24 68.628 8.338 83.72 20.792 84.037 21.003 84.248 21.319 84.565 21.636 84.776 21.847 84.881 22.164 85.092 22.269 85.198 22.48 85.198 22.48 85.198 22.48"/><polygon class="cls-1" points="37.388 8.443 37.177 8.654 36.966 8.76 36.649 8.865 36.438 9.077 36.121 9.288 35.805 9.393 35.594 9.604 35.277 9.815 35.066 10.026 34.749 10.343 34.327 10.554 34.011 10.871 33.694 11.187 33.377 11.504 33.061 11.821 32.639 12.243 23.562 21.741 23.14 22.269 22.823 22.586 22.401 23.008 22.084 23.325 21.662 23.641 21.346 23.852 21.135 24.063 20.818 24.274 20.501 24.485 20.29 24.591 20.079 24.802 19.868 24.908 19.657 25.013 19.446 25.119 19.235 25.119 19.129 25.224 14.486 20.792 14.591 20.686 14.802 20.475 15.013 20.264 15.224 19.947 15.646 19.631 15.963 19.208 16.385 18.786 16.807 18.259 17.335 17.836 17.757 17.203 18.285 16.675 18.813 16.148 19.446 15.514 19.974 14.987 20.501 14.354 21.135 13.72 21.662 13.087 22.19 12.559 22.823 11.926 23.245 11.398 23.879 10.871 24.301 10.343 24.723 9.815 25.145 9.393 25.567 8.971 25.989 8.549 26.306 8.232 26.517 7.916 26.728 7.704 26.939 7.599 26.939 7.493 27.045 7.388 27.361 7.071 27.678 6.86 28.206 6.227 28.522 5.91 28.734 5.699 28.945 5.488 29.156 5.277 29.472 5.066 29.683 4.855 29.894 4.644 30.211 4.327 30.528 4.116 30.739 4.011 30.95 3.799 31.161 3.694 31.689 3.272 32.216 2.955 32.744 2.533 33.377 2.216 34.011 1.9 34.644 1.583 35.277 1.372 36.016 1.055 36.755 0.844 37.388 0.633 38.232 0.422 38.971 0.317 39.815 0.211 40.66 0.106 41.504 0 42.454 0 43.509 0 44.459 0.106 45.515 0.211 46.464 0.422 47.414 0.633 48.47 0.95 49.314 1.266 50.264 1.583 51.108 2.005 52.058 2.427 52.902 2.955 53.747 3.377 54.485 4.011 55.224 4.538 55.963 5.171 56.702 5.805 57.335 6.544 57.968 7.177 58.496 7.916 59.129 8.76 59.657 9.499 60.079 10.343 60.607 11.187 61.029 12.032 61.346 12.876 61.662 13.826 61.873 14.776 62.084 15.62 62.296 16.57 62.401 17.52 62.507 18.47 62.507 19.42 62.507 20.686 62.401 21.847 62.296 22.902 62.084 24.063 61.873 25.119 61.557 26.174 61.24 27.124 60.818 28.074 60.396 29.024 59.974 29.974 59.446 30.818 58.918 31.662 58.285 32.401 57.652 33.14 57.018 33.879 56.385 34.512 55.646 35.145 54.908 35.778 54.169 36.306 53.43 36.834 52.586 37.361 51.847 37.784 51.003 38.206 50.158 38.522 49.314 38.839 48.47 39.156 47.52 39.367 46.675 39.578 45.831 39.683 44.987 39.789 44.143 39.894 43.298 39.894 42.243 39.894 41.715 39.894 41.187 39.894 40.765 39.789 40.343 39.789 39.815 39.683 39.499 39.683 38.971 39.578 38.654 39.472 38.232 39.367 37.388 39.261 37.071 39.156 36.755 39.05 36.438 38.945 36.121 38.839 35.805 38.733 35.488 38.628 35.172 38.417 34.96 38.311 34.644 38.206 34.433 38.1 34.222 37.995 34.011 37.889 33.694 37.784 33.483 37.678 33.272 37.573 33.166 37.467 32.955 37.361 32.744 37.256 32.533 37.15 32.744 37.045 32.955 36.939 33.166 36.728 33.377 36.623 33.588 36.412 33.799 36.201 34.011 36.095 34.222 35.884 34.433 35.673 34.749 35.462 34.96 35.251 35.277 34.934 35.805 34.406 36.121 34.09 36.438 33.773 38.232 31.768 38.338 31.768 38.443 31.873 38.654 31.873 38.865 31.979 39.077 31.979 39.288 32.084 39.604 32.19 39.921 32.19 40.237 32.296 40.554 32.296 40.976 32.401 41.293 32.401 41.715 32.507 42.137 32.507 42.982 32.507 43.615 32.507 44.143 32.401 44.67 32.296 45.303 32.19 45.831 32.084 46.359 31.979 46.887 31.768 47.414 31.557 47.942 31.346 48.47 31.029 48.997 30.712 49.525 30.396 50.053 30.079 50.475 29.763 50.897 29.34 51.319 29.024 51.847 28.496 52.164 28.074 52.586 27.652 53.008 27.124 53.325 26.596 53.641 26.069 53.958 25.541 54.169 25.013 54.38 24.38 54.591 23.747 54.802 23.113 54.908 22.48 55.013 21.847 55.119 21.108 55.119 20.475 55.119 19.736 55.119 18.997 55.013 18.364 54.908 17.731 54.802 17.098 54.591 16.464 54.485 15.831 54.169 15.198 53.958 14.67 53.747 14.142 53.43 13.615 53.113 13.087 52.691 12.559 52.375 12.137 51.953 11.609 51.636 11.187 51.108 10.765 50.686 10.449 50.264 10.026 49.736 9.71 49.314 9.393 48.786 9.077 48.259 8.76 47.731 8.549 47.203 8.232 46.675 8.021 46.148 7.916 45.515 7.704 44.987 7.599 44.354 7.493 43.826 7.493 43.193 7.388 42.665 7.388 42.243 7.388 41.926 7.388 41.504 7.388 41.187 7.493 40.765 7.493 40.449 7.599 40.026 7.599 39.71 7.704 39.393 7.704 39.077 7.81 38.76 7.916 38.443 8.021 38.232 8.127 37.916 8.232 37.704 8.338 37.388 8.443 37.388 8.443"/><polygon class="cls-1" points="20.29 32.612 20.607 32.612 21.029 32.612 21.346 32.612 21.768 32.507 22.084 32.507 22.507 32.401 22.823 32.401 23.14 32.296 23.456 32.19 23.773 32.19 24.09 32.084 24.406 31.979 24.723 31.873 24.934 31.768 25.251 31.662 25.462 31.557 25.673 31.451 25.989 31.24 26.201 31.135 26.517 30.923 26.728 30.712 27.045 30.607 27.361 30.396 27.573 30.185 27.889 29.974 28.206 29.657 28.522 29.446 28.839 29.129 29.156 28.813 29.578 28.496 29.894 28.179 30.211 27.863 39.288 18.259 39.71 17.836 40.132 17.414 40.449 16.992 40.871 16.675 41.187 16.464 41.504 16.148 41.821 15.937 42.032 15.726 42.348 15.514 42.559 15.303 42.876 15.198 43.087 15.092 43.298 14.987 43.404 14.881 43.615 14.881 43.826 14.776 48.47 19.208 48.364 19.314 48.153 19.525 47.942 19.736 47.625 20.053 47.309 20.475 46.887 20.792 46.464 21.214 46.042 21.741 45.62 22.269 45.092 22.797 44.565 23.325 44.037 23.852 43.509 24.485 42.876 25.119 42.348 25.646 41.821 26.28 41.187 26.913 40.66 27.441 40.132 28.074 39.604 28.602 39.077 29.129 38.654 29.657 38.127 30.185 37.704 30.607 37.282 31.029 36.966 31.451 36.649 31.768 36.438 32.084 36.121 32.296 36.016 32.401 35.91 32.507 35.91 32.612 35.594 32.929 35.277 33.245 34.96 33.562 34.749 33.773 34.433 34.09 34.116 34.301 33.905 34.617 33.694 34.828 33.483 34.934 33.272 35.251 32.955 35.462 32.639 35.673 32.427 35.884 32.216 36.095 31.9 36.201 31.689 36.412 31.267 36.728 30.633 37.15 30.106 37.467 29.472 37.784 28.945 38.1 28.206 38.417 27.573 38.628 26.939 38.945 26.201 39.156 25.462 39.367 24.723 39.578 23.879 39.683 23.034 39.789 22.19 39.894 21.346 40 20.396 40 19.446 40 18.391 39.894 17.335 39.789 16.385 39.578 15.435 39.367 14.486 39.05 13.536 38.733 12.586 38.417 11.741 37.995 10.897 37.573 10.053 37.15 9.208 36.623 8.364 35.989 7.625 35.462 6.887 34.828 6.253 34.195 5.515 33.456 4.881 32.718 4.354 31.979 3.72 31.24 3.193 30.501 2.77 29.657 2.348 28.813 1.926 27.968 1.61 27.124 1.293 26.174 0.976 25.224 0.765 24.38 0.554 23.43 0.449 22.48 0.343 21.53 0.343 20.58 0.343 19.314 0.449 18.153 0.554 16.992 0.765 15.937 1.082 14.881 1.293 13.826 1.715 12.876 2.032 11.926 2.454 10.976 2.982 10.026 3.509 9.182 4.037 8.338 4.565 7.599 5.198 6.86 5.831 6.121 6.57 5.488 7.203 4.855 7.942 4.222 8.681 3.694 9.525 3.166 10.264 2.639 11.108 2.216 11.953 1.9 12.797 1.478 13.641 1.161 14.486 0.844 15.33 0.633 16.174 0.422 17.018 0.317 17.863 0.211 18.813 0.106 19.657 0.106 20.712 0.106 21.135 0.106 21.662 0.106 22.084 0.211 22.612 0.211 23.034 0.317 23.456 0.317 23.879 0.422 24.301 0.528 24.723 0.633 25.04 0.633 25.462 0.844 25.778 0.95 26.201 1.055 26.517 1.161 26.834 1.266 27.15 1.372 27.361 1.478 27.678 1.583 27.995 1.689 28.206 1.794 28.417 1.9 28.734 2.005 28.945 2.111 29.156 2.216 29.367 2.322 29.578 2.427 29.789 2.533 30 2.639 30.106 2.744 30.317 2.85 30.106 2.955 29.894 3.061 29.683 3.272 29.472 3.377 29.367 3.588 29.05 3.694 28.839 3.905 28.628 4.116 28.417 4.327 28.206 4.538 27.889 4.749 27.678 5.066 27.361 5.277 27.15 5.594 26.834 5.91 26.517 6.227 24.617 8.232 24.512 8.232 24.406 8.127 24.195 8.127 24.09 8.021 23.879 8.021 23.562 7.916 23.245 7.81 23.034 7.81 22.718 7.704 22.296 7.704 21.979 7.599 21.557 7.599 21.135 7.493 20.712 7.493 19.868 7.493 19.34 7.493 18.707 7.599 18.179 7.704 17.652 7.81 17.018 7.916 16.491 8.021 15.963 8.232 15.435 8.443 14.908 8.76 14.38 8.971 13.852 9.288 13.325 9.604 12.902 9.921 12.375 10.237 11.953 10.66 11.53 11.082 11.108 11.398 10.686 11.926 10.264 12.348 9.947 12.876 9.525 13.404 9.208 13.931 8.997 14.459 8.681 14.987 8.47 15.62 8.259 16.253 8.048 16.887 7.942 17.52 7.836 18.153 7.731 18.892 7.731 19.631 7.731 20.369 7.731 21.003 7.836 21.636 7.942 22.269 8.048 22.902 8.259 23.536 8.47 24.169 8.681 24.697 8.892 25.33 9.208 25.858 9.42 26.385 9.842 26.913 10.158 27.441 10.475 27.863 10.897 28.39 11.319 28.813 11.741 29.235 12.164 29.657 12.691 29.974 13.113 30.29 13.641 30.607 14.063 30.923 14.591 31.24 15.119 31.451 15.646 31.768 16.174 31.873 16.807 32.084 17.335 32.19 17.968 32.401 18.496 32.507 19.129 32.507 19.657 32.612 20.29 32.612 20.29 32.612"/><polygon class="cls-1" points="38.232 9.393 42.876 13.72 42.77 13.826 42.665 13.826 42.559 13.931 42.454 13.931 42.348 14.037 42.243 14.037 42.137 14.142 41.926 14.248 41.821 14.354 41.715 14.354 41.61 14.459 41.504 14.565 41.293 14.67 41.187 14.776 40.976 14.881 40.871 14.987 40.66 15.198 40.554 15.303 40.343 15.409 40.132 15.62 39.921 15.831 39.71 15.937 39.499 16.148 39.288 16.359 39.077 16.57 38.865 16.781 38.443 17.309 29.367 26.913 29.05 27.23 28.734 27.546 28.417 27.863 28.206 28.074 27.889 28.39 27.573 28.602 27.256 28.813 27.045 29.129 26.728 29.34 26.412 29.551 26.095 29.763 25.884 29.868 25.567 30.079 25.251 30.29 25.04 30.396 24.723 30.501 20.079 26.174 20.185 26.174 20.29 26.069 20.396 26.069 20.501 25.963 20.607 25.963 20.712 25.858 20.818 25.752 20.924 25.752 21.135 25.646 21.24 25.541 21.346 25.435 21.557 25.33 21.662 25.224 21.979 25.013 22.084 24.908 22.296 24.802 22.507 24.591 22.612 24.485 22.823 24.274 23.034 24.169 23.245 23.958 23.456 23.747 23.668 23.536 23.879 23.325 24.09 23.113 24.301 22.902 24.512 22.586 33.588 13.087 33.905 12.77 34.433 12.137 34.855 11.821 35.066 11.609 35.383 11.293 35.699 11.082 35.91 10.871 36.227 10.66 36.544 10.449 36.86 10.237 37.071 10.026 37.388 9.815 37.704 9.71 37.916 9.499 38.232 9.393 38.232 9.393"/></g></svg>