<svg xmlns="http://www.w3.org/2000/svg" width="140" height="32" viewBox="0 0 140 32"><defs><style>.cls-1{fill:#a5adba;}</style></defs><title>anthem-140x32</title><g id="anthem"><path class="cls-1" d="M135.376,28.724a2.312,2.312,0,1,1,2.316,2.319,2.319,2.319,0,0,1-2.316-2.319m4.255,0a1.943,1.943,0,1,0-1.939,1.948,1.869,1.869,0,0,0,1.939-1.948m-2.465,1.31h-.339V27.389h1.139c.688,0,.919.259.919.732,0,.513-.356.7-.818.737l.788,1.176h-.378l-.746-1.176h-.565Zm.466-1.484c.369,0,.886.064.886-.434,0-.371-.308-.418-.628-.418h-.724v.852Z"/><path class="cls-1" d="M98.381,14.554a8.648,8.648,0,0,0-5.859-1.967,8.047,8.047,0,0,0-5.814,2.668,10.25,10.25,0,0,0-2.611,6.99,9.511,9.511,0,0,0,2.708,6.818,8.774,8.774,0,0,0,6.265,2.584,7.529,7.529,0,0,0,7.6-6.54l.022-.163H99.275l-.013.124a5.976,5.976,0,0,1-5.878,5.253c-2.7,0-4.255-1.853-4.264-5.073V20.977h11.849V20.83a8.35,8.35,0,0,0-2.587-6.276M95.9,19.644H89.1V17.726a4.1,4.1,0,0,1,1.054-2.98,3.249,3.249,0,0,1,2.341-.928c2.188.007,3.4,1.4,3.406,3.915Z"/><path class="cls-1" d="M61.243,27.526h-1.33l-.018.116a2.43,2.43,0,0,1-2.4,2.247c-1.331,0-2.008-.936-2.013-2.771V14.345H59.86l0-.145V13.091H55.509V7.557l-.158.017c-1.025.114-3.109.272-4.19.272h-.145v5.243H48.124v1.26h2.913V25.468c0,4.1,1.757,6.179,5.212,6.179A4.658,4.658,0,0,0,61.215,27.7Z"/><path class="cls-1" d="M45.476,29.9V18.587a5.929,5.929,0,0,0-1.641-4.32,6.08,6.08,0,0,0-4.359-1.67A6.785,6.785,0,0,0,33.8,15.453l-.043-2.209V13.1H26.624v1.242h2.8V29.9h-5L14.175.45l-.033-.1H12.888l-.03.1L2.826,29.9H0v1.238H8.381V29.9H4.52l2.787-8.406h8.97L19.1,29.9H15.2v1.238H36.6V29.9H33.8V21.264c.008-5.153,2.755-7.019,4.6-7.019,1.785,0,2.693,1.156,2.7,3.438V29.9h-2.62v1.24h9.84V29.9H45.476ZM11.678,8.221l4.2,11.988H7.746Z"/><path class="cls-1" d="M80.653,29.9V18.406c0-2.679-1.633-5.809-6.222-5.809a7.856,7.856,0,0,0-6.183,2.617V.441H61.112V1.724h2.671V29.9H60.9v1.24H71V29.9H68.248V21.15c0-3.022,1.032-4.688,1.9-5.555a4.257,4.257,0,0,1,3.022-1.3c2.451,0,2.97,2.014,2.977,3.7V29.9H73.386v1.24H83.491V29.9H80.653Z"/><path class="cls-1" d="M134.1,29.9h-2.746V17.712c0-3.156-2.166-5.115-5.638-5.115a7.079,7.079,0,0,0-5.919,2.755c-.915-1.79-2.672-2.755-5.135-2.755a7.884,7.884,0,0,0-5.845,2.412l-.039-1.765V13.1h-7.256v1.242h2.969V29.9h-2.929v1.24h9.876V29.9h-2.525V21.3c.086-2.5.2-4.11,1.093-5.342a4.113,4.113,0,0,1,3.2-1.663,2.19,2.19,0,0,1,2.064,1.247,7.682,7.682,0,0,1,.378,3.133V29.9h-2.636v1.24h9.718V29.9h-2.536V21.3c.087-2.5.2-4.1,1.094-5.342a4.113,4.113,0,0,1,3.2-1.663,2.187,2.187,0,0,1,2.064,1.247,7.7,7.7,0,0,1,.377,3.133V29.9h-2.618v1.24h9.924V29.9Z"/></g></svg>